<svg width="128" height="128" viewBox="0 0 128 128" fill="none" xmlns="http://www.w3.org/2000/svg">
<path d="M35.52 21.24L40.33 113.71C40.33 121.53 50.93 127.86 64 127.86C77.07 127.86 87.66 121.53 87.66 113.71L92.47 21.24H35.52Z" fill="#ED6C30"/>
<path d="M64.0001 32.5501C76.3603 32.5501 86.3801 27.1237 86.3801 20.4301C86.3801 13.7364 76.3603 8.31006 64.0001 8.31006C51.64 8.31006 41.6201 13.7364 41.6201 20.4301C41.6201 27.1237 51.64 32.5501 64.0001 32.5501Z" fill="white"/>
<path d="M64 4.21997C48.27 4.21997 35.52 11.84 35.52 21.25C35.52 30.65 48.27 38.27 64 38.27C79.72 38.27 92.48 30.65 92.48 21.25C92.48 11.84 79.72 4.21997 64 4.21997ZM64 32.55C51.64 32.55 41.62 27.12 41.62 20.43C41.62 13.74 51.64 8.30997 64 8.30997C76.36 8.30997 86.38 13.74 86.38 20.43C86.38 27.13 76.36 32.55 64 32.55Z" fill="#78A3AD"/>
<path d="M75.1299 10.22C72.1599 8.64995 68.2699 7.69995 63.9999 7.69995C59.7299 7.69995 55.8399 8.64995 52.8699 10.22H47.1299V17.37H47.1599C47.1499 17.51 47.1299 17.64 47.1299 17.78C47.1299 23.35 54.6799 27.86 63.9999 27.86C73.0899 27.86 80.4699 23.56 80.8299 18.18H80.8599V10.21H75.1299V10.22Z" fill="#999999"/>
<path d="M75.1299 10.22C72.1599 8.64995 68.2699 7.69995 63.9999 7.69995C59.7299 7.69995 55.8399 8.64995 52.8699 10.22H47.1299V17.37H47.1599C47.1499 17.51 47.1299 17.64 47.1299 17.78C47.1299 23.35 54.6799 27.86 63.9999 27.86C73.0899 27.86 80.4699 23.56 80.8299 18.18H80.8599V10.21H75.1299V10.22Z" fill="#78A3AD"/>
<path d="M63.9998 15.6701C70.0473 15.6701 74.9498 13.0151 74.9498 9.74006C74.9498 6.46501 70.0473 3.81006 63.9998 3.81006C57.9523 3.81006 53.0498 6.46501 53.0498 9.74006C53.0498 13.0151 57.9523 15.6701 63.9998 15.6701Z" fill="white"/>
<path d="M63.9999 0.139893C54.6799 0.139893 47.1299 4.64989 47.1299 10.2299C47.1299 15.7999 54.6799 20.3099 63.9999 20.3099C73.3099 20.3099 80.8699 15.7999 80.8699 10.2299C80.8699 4.64989 73.3099 0.139893 63.9999 0.139893ZM63.9999 15.6699C57.9499 15.6699 53.0499 13.0199 53.0499 9.73989C53.0499 6.45989 57.9499 3.80989 63.9999 3.80989C70.0499 3.80989 74.9499 6.45989 74.9499 9.73989C74.9499 13.0099 70.0499 15.6699 63.9999 15.6699Z" fill="#78A3AD"/>
<path d="M74.9099 52.43C74.0799 50.58 71.8799 50.18 70.0699 50.04C69.3999 49.99 68.3499 50.19 68.2099 49.26C68.1599 48.91 68.1199 48.56 68.0899 48.21C68.0299 47.68 68.0099 47.15 67.9199 46.63C67.7699 45.73 67.2199 44.72 66.4899 43.99C65.9999 43.5 65.4099 43.13 64.7999 43C63.8299 42.8 62.7299 42.9 61.8099 43.31C59.9199 44.16 59.5599 46.4 59.4099 48.24C59.3799 48.61 59.3899 48.97 59.3599 49.33C59.3399 49.58 59.2699 49.82 59.0399 49.95C58.9415 50.0073 58.8328 50.0447 58.7199 50.06L57.9099 50.15C57.5099 50.19 57.0999 50.21 56.6999 50.27C55.7599 50.42 54.5999 50.8 53.8599 51.37C53.2199 51.85 52.6399 52.51 52.4399 53.28C52.1699 54.33 52.1799 55.51 52.6899 56.49C53.6499 58.33 55.7999 58.67 57.6699 58.81C58.1299 58.84 58.7799 58.72 59.1599 59.06C59.4099 59.29 59.3999 59.71 59.4399 60.02C59.4899 60.52 59.5599 61.02 59.6399 61.52C59.7899 62.46 60.1699 63.62 60.7399 64.36C61.2199 65 61.8799 65.58 62.6499 65.77C63.6999 66.04 64.8799 66.03 65.8599 65.52C67.6999 64.56 68.0399 62.41 68.1799 60.54C68.2099 60.19 68.1699 59.78 68.2599 59.44C68.4099 58.82 69.1499 58.86 69.6299 58.81C70.2799 58.74 70.9399 58.65 71.5899 58.54C72.4899 58.38 73.4999 57.84 74.2299 57.11C74.7199 56.61 75.0899 56.03 75.2199 55.42C75.4299 54.45 75.3199 53.34 74.9099 52.43ZM72.7799 113.31C73.1999 112.89 73.5199 112.39 73.6299 111.86C73.8099 111.02 73.7099 110.07 73.3599 109.29C72.4099 107.17 69.4799 107.27 67.5299 107.13C64.2799 106.9 60.9199 106.92 57.6999 107.43C56.8899 107.56 55.8999 107.89 55.2599 108.37C54.7099 108.78 54.2099 109.35 54.0399 110.01C53.8099 110.91 53.8199 111.93 54.2599 112.77C55.0799 114.35 56.9299 114.64 58.5399 114.77C62.3599 115.06 66.7199 115.2 70.5099 114.54C71.2899 114.4 72.1599 113.94 72.7799 113.31Z" fill="white"/>
</svg>
