<svg width="128" height="128" viewBox="0 0 128 128" fill="none" xmlns="http://www.w3.org/2000/svg">
<path opacity="0.5" d="M108.69 45.3099C103.1 41.8599 95.7301 42.4899 92.3301 43.0699V39.1099C92.3301 39.1099 94.6901 38.2399 94.4401 35.3899C94.1901 32.5399 87.6201 32.2899 87.6201 32.2899L27.8701 32.1699C27.8701 32.1699 24.7701 32.6699 24.7701 35.5199C24.7701 38.3699 27.0001 38.8599 27.0001 38.8599C27.0001 38.8599 26.2601 97.3699 26.0101 98.9799C25.7601 100.59 24.0301 107.04 23.5301 109.14C23.0301 111.25 23.5301 112.61 25.1401 113.97C26.7501 115.33 36.9201 123.64 58.8601 124.26C80.3001 124.87 90.22 116.7 92.2001 114.96C93.4201 113.9 94.1801 111.86 93.8101 110.37C93.44 108.88 92.4501 101.32 92.4501 101.32L92.3501 96.9999C93.9901 96.8699 96.0401 96.5899 97.9001 95.9899C104.1 94.0099 111.45 88.4899 113.89 81.9799C117.25 73.0799 119.61 52.0599 108.69 45.3099ZM101.13 81.6299C98.1301 84.6899 94.5401 85.2299 92.3301 85.3299V54.5399C94.5901 54.1099 98.9101 53.5199 101.5 54.6099C103.86 55.5999 105.22 57.2099 105.96 60.8099C106.4 62.8799 107.21 75.4299 101.13 81.6299Z" fill="white"/>
<path opacity="0.7" d="M108.69 45.3099C103.1 41.8599 95.7301 42.4899 92.3301 43.0699V39.1099C92.3301 39.1099 94.6901 38.2399 94.4401 35.3899C94.1901 32.5399 87.6201 32.2899 87.6201 32.2899L27.8701 32.1699C27.8701 32.1699 24.7701 32.6699 24.7701 35.5199C24.7701 38.3699 27.0001 38.8599 27.0001 38.8599C27.0001 38.8599 26.2601 97.3699 26.0101 98.9799C25.7601 100.59 24.0301 107.04 23.5301 109.14C23.0301 111.25 23.5301 112.61 25.1401 113.97C26.7501 115.33 36.9201 123.64 58.8601 124.26C80.3001 124.87 90.22 116.7 92.2001 114.96C93.4201 113.9 94.1801 111.86 93.8101 110.37C93.44 108.88 92.4501 101.32 92.4501 101.32L92.3501 96.9999C93.9901 96.8699 96.0401 96.5899 97.9001 95.9899C104.1 94.0099 111.45 88.4899 113.89 81.9799C117.25 73.0799 119.61 52.0599 108.69 45.3099ZM101.13 81.6299C98.1301 84.6899 94.5401 85.2299 92.3301 85.3299V54.5399C94.5901 54.1099 98.9101 53.5199 101.5 54.6099C103.86 55.5999 105.22 57.2099 105.96 60.8099C106.4 62.8799 107.21 75.4299 101.13 81.6299Z" fill="#E0E0E0"/>
<path d="M28.8399 94.8201L28.3799 107.77L34.7399 114.13L36.7899 115.49L36.8699 103.98L32.6199 100.35L28.8399 94.8201Z" fill="white"/>
<path d="M26.4902 109.36C26.5702 109.89 31.6402 115.27 41.6402 118.6C51.6402 121.93 63.9102 122.08 75.3402 119.43C86.7702 116.78 91.0902 109.96 91.0902 109.96C91.0902 109.96 91.3202 108.52 90.0302 107.92C88.7402 107.32 85.6402 107.24 83.5902 109.36C81.5802 111.44 81.3902 114.74 81.3902 114.74C81.3902 114.74 79.1902 110.5 73.8902 111.56C68.3802 112.66 66.6202 118.23 66.6202 118.23C66.6202 118.23 64.3502 113.46 58.8902 113.38C53.4402 113.3 50.4102 118.98 50.4102 118.98C50.4102 118.98 51.3202 112.47 44.5802 110.65C38.2002 108.93 35.6402 114.21 35.6402 114.21C35.6402 114.21 35.3702 109.01 32.3802 107.24C28.3102 104.81 26.4902 109.36 26.4902 109.36Z" fill="#D5D5D5"/>
<path d="M29.63 34.02L29.53 43.88L29.5 47.65L66.27 69.9L88.88 45.04L88.9 34.43L29.63 34.02Z" fill="#EBC990"/>
<path d="M29.9499 92.3401C29.9499 92.3401 28.0199 92.4501 28.4699 94.9701C28.7399 96.4301 34.3099 111.91 59.4899 111.68C83.7499 111.46 89.1799 96.3401 89.3599 94.9701C89.6999 92.3401 86.3799 93.2501 86.3799 93.2501L29.9499 92.3401Z" fill="#9D9D9C"/>
<path d="M58.9198 50.5699C40.7198 51.1399 29.5098 44.3899 29.5098 44.3899C29.5098 44.3899 29.1998 87.9599 29.2798 90.6299C29.3898 94.5199 34.1998 110.09 59.0398 109.86C83.8798 109.63 89.0298 94.1799 89.0298 90.1699C89.0298 87.9899 88.9198 44.3899 88.9198 44.3899C88.9198 44.3899 80.9998 49.8699 58.9198 50.5699Z" fill="url(#paint0_radial_82_1031)"/>
<path d="M91.7299 47.06C91.9699 49.93 96.2699 48.04 100.52 48.13C105.17 48.23 107.97 50.17 108.21 47.49C108.45 44.77 103.66 44.08 99.8199 43.88C97.1799 43.74 91.4999 44.29 91.7299 47.06Z" fill="white"/>
<path d="M92.1 52.4201C91.48 53.0901 91.99 56.6301 92.31 56.8701C92.9 57.3301 96.53 55.1801 100.35 56.4501C106.57 58.5101 105.81 62.6301 106.18 62.5501C106.57 62.4701 107.55 55.6101 102.33 52.7801C98.4 50.6601 92.72 51.7501 92.1 52.4201Z" fill="#9E9E9E"/>
<path d="M92.6599 87.07C91.9299 87.71 92.2499 90.06 94.6599 90.02C97.3799 89.97 101.19 89.11 104.32 85.4C106.55 82.76 107.04 77.96 106.18 77.96C105.32 77.96 103.73 82.86 99.3299 85.17C95.2899 87.29 93.4299 86.39 92.6599 87.07Z" fill="white"/>
<path d="M92.1699 93.5599L92.3699 98.2199C92.3699 98.2199 99.8399 98.6399 107.35 92.5999C116.55 85.2099 116.42 70.9999 116.38 70.9799C116.28 70.9299 113.43 83.4199 105.4 89.1999C98.9199 93.8699 92.1699 93.5599 92.1699 93.5599Z" fill="#9E9E9E"/>
<path d="M62.6898 61.89C61.6598 63.53 62.0998 65.14 62.9198 65.61C63.9298 66.19 65.4698 65.52 66.2098 63.99C66.8598 62.65 66.8598 61.18 65.6398 60.61C64.6798 60.16 63.5898 60.45 62.6898 61.89ZM54.3498 71.93C53.2798 72.78 53.6998 74.09 54.4098 75.02C55.1698 76.02 56.6198 76.44 57.4198 75.73C58.1898 75.04 58.1298 73.6 57.3098 72.55C56.6198 71.68 55.3198 71.16 54.3498 71.93ZM53.1098 81.31C51.1198 81.37 50.8998 83.32 51.0398 84.15C51.1398 84.72 51.6598 85.96 53.5398 85.91C55.4198 85.86 55.6398 83.87 55.5298 83.16C55.3998 82.45 54.8698 81.26 53.1098 81.31ZM59.3998 82.79C58.4298 82.82 57.5198 83.71 57.7798 85.14C58.0398 86.53 58.9698 86.87 59.7698 86.76C60.5298 86.65 61.3298 85.91 61.2198 84.63C61.0998 83.36 60.2498 82.76 59.3998 82.79ZM63.4998 89.76C62.3198 89.76 61.5498 91.02 61.5898 92.44C61.6298 93.86 62.5098 95.6 64.2298 95.4C65.4498 95.26 66.0998 93.25 65.8098 92.07C65.5298 90.89 64.7198 89.76 63.4998 89.76ZM56.5898 96.33C55.2498 96.73 55.6798 99.03 55.8598 99.58C56.0998 100.31 56.7498 101.69 58.2198 101.37C59.6898 101.05 59.3998 99.1 58.8698 97.88C58.4498 96.91 57.8098 95.97 56.5898 96.33Z" fill="#FFE265"/>
<path d="M29.7902 22.76C29.4702 23.08 23.5302 23.87 23.6902 29.26C23.8502 34.65 29.6402 36.47 31.9302 37.27C34.2302 38.06 39.3002 38.93 40.8102 43.93C42.3202 48.92 42.5602 51.28 44.9302 51.94C47.7802 52.73 49.7002 48.62 51.1102 46.31C52.6202 43.85 54.0402 41.71 56.4202 41.4C58.8002 41.09 72.5102 41.4 80.4402 39.42C88.3702 37.44 94.8102 32.93 94.4702 26.34C94.0002 17.21 81.4002 18.16 81.4002 18.16C81.4002 18.16 76.4402 5.73002 63.1602 4.13002C46.7502 2.15002 43.0302 12.45 43.0302 12.45C43.0302 12.45 36.9702 10.83 32.4902 14.91C28.8202 18.25 29.7902 22.76 29.7902 22.76Z" fill="#FADFB1"/>
<path d="M44.69 17.13C43.92 17.63 39.2 14.32 35.61 18.05C32.58 21.21 34.86 24.18 33.91 25.37C32.61 26.99 27.98 26.36 28.3 29.76C28.62 33.17 33.27 33.52 35.68 34.23C37.95 34.89 40.23 35.88 42.41 37.79C44.68 39.78 43.9 44.95 46.23 45.43C48.53 45.91 48.99 40.79 51.93 38.57C54.86 36.35 56.91 36.56 64.36 36.15C71.8 35.74 90.34 35.35 89.65 26.95C89.1 20.21 81.17 22.75 78.79 21.56C76.41 20.37 73.59 9.91996 62.06 8.31996C50.08 6.66996 45.97 16.31 44.69 17.13ZM32.5 42.64C32.16 44.55 31.96 88.9 31.96 88.9C31.96 88.9 31.76 92.36 34.75 92.77C37.54 93.16 38.55 90.52 38.62 88.74C38.7 86.96 39.08 47.21 39.01 45.43C38.94 43.65 37.23 41.63 35.52 41.09C33.81 40.55 32.73 41.33 32.5 42.64Z" fill="white"/>
<defs>
<radialGradient id="paint0_radial_82_1031" cx="0" cy="0" r="1" gradientUnits="userSpaceOnUse" gradientTransform="translate(60.3292 13.4632) rotate(90.9855) scale(96.2296 72.1025)">
<stop offset="0.594" stop-color="#DB8116"/>
<stop offset="0.896" stop-color="#FDB408"/>
</radialGradient>
</defs>
</svg>
