<svg width="141" height="141" viewBox="0 0 141 141" fill="none" xmlns="http://www.w3.org/2000/svg">
<path d="M102.599 86.1203C102.599 86.1203 101.784 115.918 103.899 118.848C106.014 121.778 108.416 123.232 107.975 125.688C107.645 127.484 106.29 127.539 101.575 127.539C96.8603 127.539 94.9546 125.039 93.8089 121.789C92.6743 118.528 92.2337 114.353 91.749 108.978C91.3084 104.109 90.5593 91.4959 90.5593 91.4959L102.599 86.1203ZM55.056 82.375C55.056 82.375 55.3314 90.2402 53.9214 94.2609C52.8749 97.2241 50.0108 104.197 50.6607 108.262C51.3107 112.338 53.3486 116.512 55.7059 118.033C57.2261 119.013 57.876 121.613 57.226 122.703C56.5761 123.794 47.4552 123.684 46.1553 122.813C44.8555 121.943 40.7577 111.82 40.0747 109.022C38.885 104.142 36.2743 89.9207 36.2743 89.9207L40.3942 76.1292L55.056 82.375Z" fill="#865A52"/>
<path d="M94.7785 40.5266L107.479 46.0675L112.26 63.7035C112.26 63.7035 109.65 72.7693 108.14 76.9993C107.149 79.7533 105.585 87.1998 98.4797 92.2009C91.8042 96.8936 82.5181 96.6512 82.5181 96.6512C82.5181 96.6512 81.8902 99.2509 81.758 108.052C81.6148 117.768 81.3614 123.023 81.9783 123.794C82.8816 124.939 86.4286 129.764 85.2389 131.395C84.0492 133.025 80.6785 133.344 78.1779 133.025C75.6774 132.705 73.3971 131.284 72.8574 130.524C72.3176 129.764 70.9406 113.924 70.6873 109.793C70.4119 105.287 70.3568 98.8323 70.2577 96.3318C70.1916 94.8116 70.1475 93.2915 70.1475 93.2915C70.1475 93.2915 66.6446 92.256 62.4366 89.7114C59.0328 87.6404 55.5959 84.9306 52.2361 83.9612C48.8763 82.9808 45.3954 82.2207 45.3954 82.2207C45.3954 82.2207 41.5399 90.1961 38.07 94.2168C34.6001 98.2375 26.7239 106.543 26.1842 108.603C25.6444 110.663 24.4437 118.044 25.6444 120.974C26.8341 123.904 28.6847 126.515 27.495 127.814C26.3053 129.114 20.0595 129.059 18.2088 127.44C16.3582 125.81 15.0033 120.654 15.1135 116.314C15.2236 111.974 16.3032 103.723 16.9641 101.443C17.625 99.1628 18.0546 88.742 18.0546 88.742L21.0949 65.1906L26.3053 56.8297L50.6168 56.0697L85.2499 53.6793L94.7785 40.5266Z" fill="#F1A058"/>
<path d="M18.0876 21.2271L57.6558 38.7309L55.4637 44.2717L14.783 26.845L18.0876 21.2271Z" fill="#02BFF1"/>
<path d="M63.9566 48.4467C61.8967 46.497 62.2162 44.9768 61.6764 44.5362C61.1366 44.1066 59.991 46.0563 57.876 45.2412C56.5431 44.7345 55.5407 43.2363 56.466 41.0112C56.8846 40.0088 58.2616 38.731 59.8808 39.2707C62.5246 40.152 61.9959 42.1458 62.6458 42.4763C63.2957 42.8067 65.2565 40.5265 68.1866 42.3661C70.2135 43.6439 67.9663 48.9865 67.9663 48.9865L63.9566 48.4467Z" fill="#BDBDBF"/>
<path d="M113.78 20.4449C113.78 20.4449 110.531 7.52354 108.35 7.41338C106.179 7.30323 104.88 14.3642 103.359 20.4449C102.566 23.6284 113.78 20.4449 113.78 20.4449Z" fill="#875A51"/>
<path d="M70.1366 85.6356C70.1366 85.6356 61.1148 81.7801 56.8958 78.2C51.9058 73.97 46.1446 63.6484 38.654 60.5089C33.9503 58.5371 29.8635 57.6889 28.8831 58.1185C27.9027 58.5481 23.893 61.4783 22.9126 66.2591C21.9322 71.0399 22.2627 85.0407 22.0424 88.6208C21.8221 92.2009 20.0376 99.9118 16.6668 102.247C14.3645 103.844 9.77099 105.453 5.9706 105.232C2.17021 105.012 0.760216 104.803 0.760216 104.362C0.760216 103.933 3.91068 102.027 7.16029 98.5018C11.0708 94.2718 14.1111 81.725 15.3008 76.1952C16.4905 70.6543 21.1611 59.6387 26.8122 54.208C32.4632 48.7773 43.633 46.7174 52.754 46.497C58.6363 46.3538 73.926 49.7577 73.926 49.7577L84.0163 45.3074C84.0163 45.3074 86.1864 40.857 88.8962 36.5169C91.6061 32.1767 94.9769 27.5061 94.9769 27.5061L101.597 34.6663C101.597 34.6663 100.297 42.1569 99.6475 44.8667C98.9976 47.5766 97.907 53.0073 95.1972 56.8077C92.4873 60.6081 90.7469 63.7585 90.7469 63.7585L110.289 70.5992L109.418 73.2099C109.418 73.2099 99.6475 70.6543 96.0674 69.8502C92.983 69.1452 86.8914 67.1403 85.922 67.3496C84.9416 67.5699 82.3419 69.3434 80.4913 71.15C77.9908 73.5955 73.1549 79.1694 72.0754 80.4362C70.1917 82.6503 70.1366 85.6356 70.1366 85.6356Z" fill="url(#paint0_linear_82_1063)"/>
<path d="M107.81 19.7952C107.81 19.7952 114.761 17.4378 119.641 20.7976C124.521 24.1574 123.816 27.5832 126.096 28.9932C128.376 30.4032 130.767 30.8879 134.126 31.5488C137.486 32.2098 136.352 35.6467 136.352 35.6467C136.352 35.6467 138.092 38.9073 136.781 40.3173C135.481 41.7273 134.226 43.0602 133.366 43.2805C132.496 43.5008 131.681 44.0956 131.681 44.0956C131.681 44.0956 130.271 46.3979 127.451 46.7284C124.631 47.0588 116.7 46.8385 116.7 46.8385L115.609 49.4492L110.289 49.2289C110.289 49.2289 106.059 36.0983 105.838 35.4374C105.618 34.7764 107.81 19.7952 107.81 19.7952Z" fill="url(#paint1_radial_82_1063)"/>
<path d="M112.205 46.9265C110.586 45.5936 108.955 43.071 108.889 38.5656C108.834 34.8754 110.244 33.1349 111.224 32.0003C112.205 30.8657 113.67 27.9245 112.634 24.6198C111.599 21.3151 109.054 19.784 106.499 16.9089C103.943 14.0338 97.7633 8.54803 96.2432 9.36318C94.723 10.1783 93.7977 16.7437 93.6876 19.9492C93.5774 23.2319 92.8173 32.2757 95.9678 34.8203C98.5785 36.9353 100.088 36.715 100.088 36.715C100.088 36.715 99.658 44.0404 99.7572 44.5361C99.8673 45.0208 102.368 47.2459 103.337 48.1162C104.307 48.9864 106.047 50.9362 106.047 50.9362C106.047 50.9362 102.632 50.9362 102.412 51.3658C102.192 51.7954 104.912 55.0009 107.138 57.7108C108.327 59.1648 112.073 64.3862 112.073 64.3862C112.073 64.3862 114.893 52.6436 115.487 50.4955C116.027 48.5458 116.248 47.8848 116.248 47.8848C116.248 47.8848 113.725 48.1822 112.205 46.9265Z" fill="#CD8C56"/>
<path d="M117.878 34.2586C116.576 34.2586 115.521 32.9615 115.521 31.3615C115.521 29.7614 116.576 28.4644 117.878 28.4644C119.18 28.4644 120.235 29.7614 120.235 31.3615C120.235 32.9615 119.18 34.2586 117.878 34.2586Z" fill="#010206"/>
<path d="M136.252 39.0615C136.252 39.0615 134.027 37.8718 133.972 35.3712C133.939 33.6859 134.137 31.4607 134.137 31.4607C134.137 31.4607 139.458 31.681 139.678 34.1155C139.899 36.5499 138.841 38.5658 138.213 39.4911C137.398 40.6808 135.603 43.9965 130.778 44.8116C125.953 45.6268 121.282 44.1066 121.282 44.1066L121.503 42.8619C121.503 42.8619 128.288 44.3269 131.549 43.1373C134.809 41.9476 136.252 39.0615 136.252 39.0615Z" fill="#464C52"/>
<path d="M118.837 42.5645C118.605 43.3686 119.244 43.9855 120.137 44.1948C121.029 44.3931 122.13 44.4371 122.252 43.7101C122.373 42.9831 121.436 42.245 120.742 42.0357C120.059 41.8264 119.046 41.8705 118.837 42.5645Z" fill="#010206"/>
<path d="M97.8407 15.3227C98.7219 14.772 103.139 19.2553 104.681 21.9982C106.356 24.9724 105.375 27.9026 103.624 29.0041C101.872 30.1057 99.4269 28.5635 98.5346 26.3163C97.5873 23.959 96.9043 15.9066 97.8407 15.3227Z" fill="#FFA9AB"/>
<path d="M86.0985 56.9727C86.0985 56.9727 111.776 63.7032 112.095 64.4082C112.426 65.1132 110.63 71.0286 110.3 71.1938C109.969 71.3591 83.7632 64.243 83.7632 64.243L86.0985 56.9727Z" fill="#484C51"/>
<path d="M72.8575 45.5715C68.3851 45.8359 50.0882 45.0537 52.776 46.4968C55.4638 47.9398 58.1516 50.5395 60.6742 55.5847C63.1968 60.6298 64.4195 72.031 76.1401 70.4888C87.8607 68.9466 88.2683 55.4305 86.9685 51.4428C85.6686 47.4552 83.9832 44.3047 83.9832 44.3047C83.9832 44.3047 79.6982 45.1639 72.8575 45.5715Z" fill="#FF5F5C"/>
<path d="M72.0973 38.5767C66.898 38.819 67.2615 43.2143 67.1072 47.8629C66.953 52.5115 66.942 77.0102 66.942 81.2402C66.942 85.4702 67.1072 92.366 67.1072 92.366C67.1072 92.366 67.5369 92.8286 68.6054 93.104C69.5197 93.3354 70.1476 93.2913 70.1476 93.2913C70.1476 93.2913 69.74 84.3907 70.7975 82.4409C71.855 80.4911 75.0826 76.845 75.0826 76.845L75.2478 45.5826L77.3628 45.164C77.3628 45.164 77.2196 38.3233 72.0973 38.5767Z" fill="#484C51"/>
<g clip-path="url(#clip0_82_1063)">
<path d="M97.2073 113.485C97.2073 113.485 95.897 117.742 97.8363 128.404C98.1835 130.317 98.6949 132.271 98.9543 133.873C102.234 133.873 102.409 137.61 101.713 137.61H97.8046C95.309 137.61 92.2591 131.387 90.6109 122.75C88.9628 114.114 97.2073 113.485 97.2073 113.485ZM72.8639 120.395C72.8639 120.395 68.6231 122.672 68.7799 128.012C68.8415 130.123 69.2447 131.915 69.4425 133.656C72.862 133.656 72.8751 137.361 71.8784 137.361H68.4141C66.6913 137.361 62.8126 131.467 62.107 123.771C61.3996 116.077 72.8639 120.395 72.8639 120.395Z" fill="#292F33"/>
<path d="M49.5699 87.3681C49.5699 78.181 57.2992 73.468 66.3687 73.468C66.8637 73.468 67.3385 73.6647 67.6885 74.0147C68.0386 74.3648 68.2352 74.8395 68.2352 75.3346C68.2352 75.8296 68.0386 76.3044 67.6885 76.6544C67.3385 77.0044 66.8637 77.2011 66.3687 77.2011C63.0014 77.2011 53.8312 78.9444 53.8312 87.3681C53.8312 92.7456 56.756 97.5631 60.868 98.5337C61.1741 98.3975 61.512 98.3396 61.8181 98.1754C75.3299 90.8641 86.936 99.859 90.238 97.6341C93.5081 95.4278 91.244 91.5585 95.5091 87.8478C96.125 84.4115 97.5118 79.4913 98.8576 79.4913C99.8823 79.4913 101.219 82.8978 102.105 86.3154C103.209 83.7377 104.649 81.1712 105.577 81.1712C106.772 81.1712 107.963 85.4139 108.552 89.076C111.688 91.2169 113.977 94.3191 113.977 97.97C113.977 103.01 106.417 104.236 103.897 104.337C101.377 104.438 98.2547 110.985 97.2057 113.804C94.8875 121.955 93.3775 130.041 92.1698 134.677C95.2477 134.677 95.537 138.618 94.6859 138.618C93.3551 138.618 91.0406 138.612 90.5329 138.618C87.9552 138.644 86.7513 129.834 86.7513 122.101C86.7513 121.705 86.7718 120.93 86.7718 120.93C86.7718 120.93 83.1694 121.873 75.5016 120.542C70.9398 119.751 66.113 122.127 64.7765 126.446C63.7929 129.626 62.1652 132.615 61.2898 134.815C64.2558 134.815 64.1736 138.618 63.3132 138.618C61.8442 138.618 59.9515 138.644 59.2385 138.618C56.4984 138.515 58.0383 124.48 57.316 119.771C56.5936 115.062 54.9511 109.36 57.7434 103.351C51.7033 100.04 49.5699 93.076 49.5699 87.3681Z" fill="#292F33"/>
<path d="M105.577 95.2467C104.65 95.2467 103.898 94.4946 103.898 93.5668C103.898 92.6391 104.65 91.887 105.577 91.887C106.505 91.887 107.257 92.6391 107.257 93.5668C107.257 94.4946 106.505 95.2467 105.577 95.2467Z" fill="#C3C914"/>
<path d="M111.196 95.6051C112.459 96.3946 112.459 98.9219 113.09 98.9219C113.721 98.9219 114.985 97.4362 114.985 95.6051C114.987 93.774 109.643 94.6345 111.196 95.6051ZM104.487 98.3732C104.564 98.4217 104.655 98.4404 104.753 98.4217C104.786 98.4142 107.642 97.9719 109.503 98.6942C109.744 98.7876 110.139 98.6513 110.274 98.3377C110.408 98.0241 110.231 97.6564 109.99 97.5631C107.302 96.501 104.657 97.1263 104.514 97.1562C104.254 97.2103 104.15 97.5108 104.163 97.8505C104.17 98.0633 104.357 98.2892 104.487 98.3732ZM105.368 102.739C105.414 102.747 105.461 102.747 105.506 102.737C105.551 102.727 105.594 102.708 105.632 102.681C105.66 102.662 108.116 101.132 110.115 101.089C110.373 101.083 110.684 100.802 110.684 100.453C110.684 100.105 110.376 99.8272 110.117 99.8309C107.22 99.8757 105.032 101.494 104.911 101.58C104.693 101.733 104.717 102.056 104.861 102.371C104.952 102.571 105.214 102.711 105.368 102.739Z" fill="#66757F"/>
<path d="M102.106 86.312C102.106 86.312 101.412 86.2392 100.503 86.3736C100.098 85.515 99.411 84.7179 99.411 84.7179C99.411 84.7179 98.8865 85.9648 98.6905 86.9186C98.6439 87.1426 98.2836 87.137 98.0895 87.2714C98.0895 87.2714 98.0186 80.8076 99.7003 80.1113C99.6985 80.1076 101.11 82.2093 102.106 86.312ZM108.555 89.0726C108.555 89.0726 107.838 88.5742 106.907 88.0012C106.502 86.8365 105.847 85.5131 105.847 85.5131C105.847 85.5131 105.274 86.6367 105.203 87.025C104.811 86.8122 104.811 86.8271 104.451 86.6703C104.451 86.6703 104.663 82.4034 106.502 81.9536C106.502 81.9536 107.868 84.5145 108.555 89.0726Z" fill="#7F676D"/>
<path d="M82.328 115.734C87.2725 116.798 86.7704 120.927 86.7704 120.927C86.7704 120.927 83.1679 121.869 75.5002 120.538C73.5396 120.211 71.5262 120.455 69.7009 121.242C72.7004 115.555 77.755 114.748 82.328 115.734Z" fill="#66757F"/>
<path d="M105.611 92.0999C105.611 92.0999 104.99 92.7475 105.016 93.552C105.042 94.3546 105.483 95.1068 105.483 95.1068C105.483 95.1068 106.028 94.4592 106.078 93.5651C106.128 92.6691 105.611 92.0999 105.611 92.0999Z" fill="#292F33"/>
</g>
<defs>
<linearGradient id="paint0_linear_82_1063" x1="57.2285" y1="94.5692" x2="44.3391" y2="40.5056" gradientUnits="userSpaceOnUse">
<stop offset="0.258" stop-color="#CA8E53"/>
<stop offset="0.456" stop-color="#A67352"/>
<stop offset="0.628" stop-color="#8E6151"/>
<stop offset="0.734" stop-color="#855A51"/>
</linearGradient>
<radialGradient id="paint1_radial_82_1063" cx="0" cy="0" r="1" gradientUnits="userSpaceOnUse" gradientTransform="translate(108.217 16.041) rotate(180) scale(27.1249 27.1249)">
<stop offset="0.037" stop-color="#CA8E53"/>
<stop offset="0.067" stop-color="#C68B53"/>
<stop offset="0.4" stop-color="#A37152"/>
<stop offset="0.672" stop-color="#8D6051"/>
<stop offset="0.847" stop-color="#855A51"/>
</radialGradient>
<clipPath id="clip0_82_1063">
<rect width="67.1953" height="67.1953" fill="white" transform="matrix(-1 0 0 1 116.766 71.6016)"/>
</clipPath>
</defs>
</svg>
