<svg width="150" height="140" viewBox="0 0 129 125" fill="none" xmlns="http://www.w3.org/2000/svg">
<g clip-path="url(#clip0_74_723)">
<path d="M64.3332 104.342C62.5315 105.713 61.4719 106.579 59.6812 107.021C58.4876 107.315 57.2022 106.988 56.3526 106.099C55.6139 105.328 55.1124 104.322 54.57 103.357C48.2972 92.1973 46.0311 79.8124 43.5933 67.4788C43.0123 64.5394 42.0337 58.0369 41.3589 54.4877C49.6315 55.1172 53.6803 54.6231 53.6803 54.6231C56.0481 68.8842 58.7797 85.5461 65.4748 98.2898C66.5414 100.321 68.2502 101.362 64.3329 104.342M76.6415 68.2926C75.8224 64.462 74.2517 57.9289 73.4063 54.1908C71.2581 44.6921 68.087 35.6244 62.6221 27.4305C59.6621 22.9924 62.4195 18.6073 68.2884 17.575C69.3554 17.3874 70.546 17.6704 71.2217 18.5176C82.4131 32.5543 85.7933 49.3267 88.5377 69.2361C82.9905 68.0812 76.6414 68.292 76.6414 68.292" fill="#FEC32D"/>
<path d="M60.3564 71.3685C75.8888 69.8086 100.855 73.0529 109.446 79.5219C109.939 79.8935 110.325 80.3904 110.562 80.961C110.799 81.5316 110.879 82.1552 110.794 82.7673C110.515 84.7643 109.468 86.5656 108.423 88.3239C107.414 90.0226 105.567 90.6576 103.809 89.8765C91.6296 84.4636 76.4542 83.2504 63.3393 83.2295C61.7423 79.8216 60.3561 71.3688 60.3561 71.3688M69.1487 51.351C52.7291 51.4232 34.1887 52.3769 19.9322 46.4142C18.7288 45.9111 17.867 44.7914 17.7786 43.4895C17.6601 41.7385 18.1395 40.4337 18.5756 39.1392C20.0988 34.6151 21.3036 33.9198 25.8019 35.4305C36.3616 38.9752 47.2648 39.3664 58.2436 39.2255C59.9059 39.2042 63.1601 39.2147 64.9548 39.2202C67.7032 43.0897 69.1487 51.351 69.1487 51.351ZM26.8991 66.7894C30.8645 67.6666 36.5451 69.5303 40.6387 70.2726C41.2493 74.1313 43.1947 82.4221 43.1947 82.4221C37.3079 81.8193 28.1413 80.589 23.0326 78.1948C21.7977 77.616 21.0452 76.3261 21.0903 74.9629C21.1776 72.3526 21.8648 70.0737 23.4683 68.0116C24.2726 66.9772 25.6202 66.5063 26.8991 66.7894ZM86.2329 41.0571C93.7 42.1656 101.17 44.5388 105.686 46.8931C106.928 47.5406 107.649 48.914 107.475 50.3035C107.143 52.946 106.161 55.064 104.474 56.8738C103.642 57.7668 102.417 58.1878 101.219 57.9553C97.7242 57.2782 92.589 54.7554 89.2352 53.7916C89.2352 53.7916 87.9232 46.5308 86.2329 41.0571Z" fill="#2C6DB0"/>
<path d="M95.2584 90.4219C99.819 98.5942 101.566 101.531 91.0578 104.246C89.826 104.564 88.9084 103.813 88.1409 102.799C85.6807 99.5457 82.842 91.928 81.284 87.6949C89.9906 88.4468 95.2584 90.4219 95.2584 90.4219ZM34.0984 34.6966C32.8314 32.8485 30.088 29.7347 29.3707 27.6573C29.0464 26.7181 29.1804 25.6612 29.7155 24.824C31.0671 22.7071 32.9912 21.3856 35.3681 20.4202C36.0048 20.1626 36.7039 20.1005 37.3761 20.2421C38.0482 20.3836 38.663 20.7222 39.1417 21.2148C42.0683 24.2397 45.8771 31.495 47.8371 35.5461C39.7911 35.972 34.0984 34.6966 34.0984 34.6966Z" fill="#FEC32D"/>
</g>
<defs>
<clipPath id="clip0_74_723">
<rect width="102" height="77.6953" fill="white" transform="translate(49.5347) rotate(39.6095)"/>
</clipPath>
</defs>
</svg>
