<svg width="131" height="131" viewBox="0 0 131 131" fill="none" xmlns="http://www.w3.org/2000/svg">
<g clip-path="url(#clip0_79_796)">
<path d="M80.9907 97.0215H49.6387C50.3694 97.0215 50.9589 104.208 50.9589 113.061C50.9589 121.92 50.3715 129.106 49.6387 129.106H80.9907C80.262 129.106 79.6704 121.92 79.6704 113.061C79.6745 104.208 80.262 97.0215 80.9907 97.0215Z" fill="#BFBEBE"/>
<path d="M60.618 97.0215H49.6406C50.3714 97.0215 50.9609 104.208 50.9609 113.061C50.9609 121.92 50.3734 129.106 49.6406 129.106H60.618C61.3487 129.106 61.9382 121.92 61.9382 113.061C61.9382 104.208 61.3487 97.0215 60.618 97.0215Z" fill="#AEAEAE"/>
<path d="M130.558 96.8375C130.558 105.121 124.315 111.833 116.627 111.833H14.0173C6.321 111.833 0.0800781 105.121 0.0800781 96.8375V20.8575C0.0800781 12.5881 6.321 5.87231 14.0173 5.87231H116.627C124.315 5.87231 130.558 12.582 130.558 20.8575V96.8375Z" fill="#D1D2D2"/>
<path d="M26.4662 96.8375V20.8575C26.4662 12.5881 32.7072 5.87231 40.4014 5.87231H14.0089C6.3127 5.87231 0.0717773 12.582 0.0717773 20.8575V96.8375C0.0717773 105.121 6.3127 111.833 14.0089 111.833H40.4014C32.7072 111.833 26.4662 105.119 26.4662 96.8354" fill="#C6C5C5"/>
<path d="M130.558 75.6134C130.558 83.8828 124.315 90.5965 116.627 90.5965H14.0168C6.32051 90.5965 0.0795898 83.8889 0.0795898 75.6134V20.8022C0.0795898 12.5185 6.32051 5.80884 14.0168 5.80884H116.627C124.315 5.80884 130.558 12.5185 130.558 20.8022V75.6134Z" fill="#243438"/>
<path d="M0.0737305 71.7424H130.56V95.0093H0.0737305V71.7424Z" fill="#243438"/>
<path d="M120.253 12.7805H10.375C9.46819 12.7805 8.71289 13.282 8.71289 13.8858V85.3033C8.71289 85.9092 9.46819 86.4087 10.375 86.4087H120.253C120.747 86.4087 121.121 86.3043 121.393 86.1201L121.434 86.0791C121.434 86.0791 121.467 86.0545 121.475 86.032C121.609 85.9623 121.722 85.858 121.803 85.7299C121.883 85.6018 121.928 85.4545 121.932 85.3033V13.9002C121.924 13.2963 121.16 12.7948 120.253 12.7948" fill="#58C5E8"/>
<path d="M66.9281 60.5034C85.3008 71.5115 103.25 79.0072 121.924 83.541V13.8858C121.924 13.282 121.16 12.7805 120.253 12.7805H19.4242C29.7814 32.2975 47.6056 48.9283 66.9322 60.5034M67.0754 72.1931C44.9078 60.1186 22.7135 43.3936 8.71289 22.7406V85.3013C8.71289 85.9072 9.46819 86.4066 10.375 86.4066H100.055C89.0998 82.8758 78.1756 78.2478 67.0795 72.2013" fill="#28A6DE"/>
<path d="M89.4912 128.395C89.4912 129.831 88.7994 131 87.9499 131H42.6935C41.8359 131 41.144 129.831 41.144 128.395C41.144 126.956 41.8359 125.789 42.6935 125.789H87.9499C88.7994 125.783 89.4912 126.954 89.4912 128.395Z" fill="#D1D2D2"/>
<path d="M57.1836 128.394C57.1836 126.956 57.8754 125.789 58.7249 125.789H42.094C41.2425 125.789 40.5527 126.956 40.5527 128.394C40.5527 129.831 41.2446 131 42.094 131H58.7249C57.8754 131 57.1836 129.831 57.1836 128.394Z" fill="#C6C5C5"/>
<path d="M70.2689 99.5085C70.0683 99.3161 69.7756 99.2609 69.3765 99.3755L67.0779 99.963C66.3615 100.157 65.9992 100.63 65.9992 101.392L65.991 103.85C65.991 104.206 66.0708 104.47 66.2304 104.622C66.2979 104.686 66.3779 104.737 66.4656 104.77C66.5533 104.802 66.6467 104.817 66.7401 104.812C66.8629 104.812 66.9776 104.785 67.1249 104.757L69.4215 104.171C70.1379 103.979 70.5023 103.504 70.5105 102.732V100.282C70.5043 99.92 70.4245 99.66 70.2689 99.5085ZM69.049 102.307C69.049 102.579 68.9221 102.747 68.6621 102.818L67.8475 103.031C67.8029 103.04 67.7578 103.046 67.7124 103.048C67.6454 103.049 67.5801 103.026 67.5282 102.984C67.475 102.933 67.4402 102.837 67.4504 102.698V101.824C67.4504 101.551 67.5773 101.383 67.8332 101.314L68.658 101.101C68.7993 101.068 68.9057 101.085 68.9671 101.148C69.0285 101.203 69.0551 101.295 69.0551 101.426V102.309H69.049V102.307ZM64.64 101.381C64.64 100.62 64.2818 100.145 63.5593 99.9527L61.2627 99.3653C60.8656 99.2506 60.5708 99.312 60.3805 99.4983C60.2126 99.6498 60.1328 99.9097 60.1328 100.27L60.141 102.716C60.1492 103.488 60.5074 103.965 61.2217 104.155L63.5265 104.742C63.6616 104.783 63.7885 104.798 63.8991 104.798C63.9927 104.803 64.0864 104.788 64.1742 104.755C64.2619 104.722 64.3418 104.671 64.4087 104.605C64.5684 104.456 64.6482 104.194 64.6482 103.834L64.64 101.381ZM63.1131 102.974C63.0721 103.017 63.0107 103.037 62.9309 103.037C62.9309 103.037 62.8429 103.029 62.7958 103.021L61.977 102.808C61.7232 102.736 61.5881 102.569 61.5881 102.296V101.414C61.5881 101.287 61.6209 101.193 61.6741 101.136C61.7376 101.072 61.842 101.056 61.9914 101.089L62.8101 101.302C63.0639 101.371 63.199 101.539 63.199 101.811V102.693C63.199 102.82 63.199 102.917 63.1131 102.974ZM66.255 107.684C66.296 107.684 66.3348 107.676 66.3901 107.657L67.2089 107.446C67.4627 107.387 67.5978 107.211 67.5978 106.931V106.059C67.6011 105.958 67.5732 105.86 67.5179 105.776C67.4463 105.706 67.3337 105.698 67.2007 105.733L66.3737 105.944C66.1199 106.007 65.991 106.181 65.991 106.46L65.9828 107.338C65.9828 107.465 66.0155 107.551 66.0708 107.606C66.1117 107.659 66.1752 107.684 66.255 107.684ZM64.3862 107.684C64.3373 107.683 64.2888 107.674 64.2429 107.657L63.4242 107.446C63.1704 107.387 63.0414 107.211 63.0414 106.931L63.0332 106.059C63.0332 105.93 63.066 105.844 63.1212 105.776C63.1847 105.706 63.2952 105.698 63.4303 105.733L64.2655 105.944C64.5131 106.007 64.6482 106.181 64.6482 106.46V107.338C64.6482 107.465 64.6155 107.551 64.5684 107.606C64.5456 107.632 64.5174 107.652 64.486 107.665C64.4545 107.679 64.4204 107.685 64.3862 107.684Z" fill="#243438"/>
</g>
<defs>
<clipPath id="clip0_79_796">
<rect width="131" height="131" fill="white"/>
</clipPath>
</defs>
</svg>
