<svg width="149" height="149" viewBox="0 0 149 149" fill="none" xmlns="http://www.w3.org/2000/svg">
<g clip-path="url(#clip0_82_1118)">
<path d="M49.194 145.741C48.3104 146.761 47.0581 147.39 45.7117 147.489C44.3652 147.587 43.0347 147.148 42.0117 146.267L8.65437 117.4C7.63244 116.518 7.00256 115.266 6.90303 113.919C6.80351 112.572 7.24248 111.241 8.12356 110.218L77.4831 39.059L103.209 2.58656C103.646 2.08056 104.178 1.66564 104.775 1.36554C105.372 1.06543 106.023 0.886024 106.69 0.837587C107.356 0.78915 108.026 0.872631 108.66 1.08325C109.295 1.29388 109.881 1.62751 110.386 2.06506L141.525 29.0038C143.646 30.8407 143.877 34.0558 142.042 36.1861L109.402 67.1571L49.2057 145.741" fill="#A7A9AC"/>
<path d="M20.2916 137.646C31.6291 147.455 44.1325 151.579 48.2187 146.857C52.305 142.134 46.4268 130.353 35.0893 120.543C23.7519 110.734 11.2485 106.61 7.16219 111.332C3.07593 116.055 8.95418 127.836 20.2916 137.646Z" fill="#939598"/>
<path d="M142.388 35.7666C138.297 40.4927 126.913 37.3311 115.565 27.5204C104.23 17.712 99.471 6.89319 103.55 2.1671C107.64 -2.55434 119.034 0.607254 130.372 10.4133C141.708 20.2217 146.478 31.0428 142.388 35.7666Z" fill="#A7A9AC"/>
<path d="M22.4434 123.311L91.8006 52.1498L117.526 15.6821C117.585 15.6052 117.664 15.5377 117.722 15.4702C117.78 15.3934 117.831 15.3212 117.901 15.249C121.175 11.4519 129.188 12.7556 138.095 18.5084C136.023 15.8264 133.416 13.0769 130.338 10.4065C118.995 0.593495 107.609 -2.5681 103.516 2.16032L103.348 2.3815C103.283 2.44901 103.211 2.51886 103.153 2.58637L77.4267 39.0564L8.0719 110.22C7.63477 110.726 7.30156 111.313 7.0913 111.947C6.88104 112.581 6.79785 113.251 6.8465 113.918C6.89515 114.584 7.07467 115.235 7.37481 115.832C7.67495 116.429 8.08983 116.961 8.59572 117.398L21.6495 128.692C21.2579 127.811 21.1252 126.838 21.267 125.885C21.4089 124.932 21.8194 124.039 22.4504 123.311" fill="#9A9A9B"/>
<path d="M15.5869 128.419C14.311 127.001 13.3053 125.272 12.3461 123.64C11.4335 122.08 9.81777 119.582 10.1833 117.666C10.7304 114.786 19.9707 121.176 21.0975 122.047C25.2043 125.209 29.4043 128.24 33.2992 131.674C37.0289 134.961 41.7806 139.285 42.5605 144.479L43.2869 143.384C37.5807 144.8 31.5764 140.751 27.4277 137.301C23.1719 133.767 18.6274 128.88 17.2491 123.363L16.0245 124.773C18.8416 125.204 21.3094 128.403 23.3302 130.31C24.0892 131.034 26.5547 133.129 26.9481 130.838C27.1809 129.474 25.0647 129.045 24.8318 130.417C25.0949 128.894 26.5733 130.277 25.4069 129.29C25.0658 128.992 24.7336 128.685 24.4105 128.368C23.7306 127.73 23.0648 127.067 22.3733 126.436C20.5993 124.808 18.9068 123.03 16.4413 122.657C15.5869 122.531 15.0118 123.267 15.2074 124.066C16.7253 130.133 21.7564 135.401 26.4243 139.268C31.1271 143.189 37.6435 146.995 43.9877 145.419C44.4277 145.31 44.7769 144.767 44.7117 144.323C43.8037 138.286 38.6493 133.511 34.298 129.676C29.8066 125.752 25.1046 122.075 20.2128 118.662C17.6077 116.823 9.82708 112.053 8.05305 117.251C7.34064 119.333 9.14028 122.25 10.0645 123.991C11.1937 126.11 12.5254 128.242 14.1458 130.035C15.0817 131.066 16.4972 129.437 15.5775 128.419" fill="#58595B"/>
<path d="M74.3252 41.8414C74.5138 41.9346 74.6302 41.9858 74.6302 41.9858L75.5684 40.8659C75.4245 40.815 75.2809 40.763 75.1377 40.71C74.8833 41.0986 74.6122 41.4761 74.3252 41.8414Z" fill="#BCBEC0"/>
<path d="M79.5289 36.1394L75.5664 40.8655L75.6828 40.9097C90.7714 46.4297 109.378 67.171 109.378 67.171L114.316 62.4914C101.35 39.2614 79.5289 36.1394 79.5289 36.1394Z" fill="#58595B"/>
<path d="M21.6997 102.461L47.1531 76.1971L60.5538 88.2638L38.716 115.603L21.6997 102.461ZM64.2718 77.6429L83.1808 58.1332L93.1219 67.0918L76.8972 87.4001L64.2718 77.6429ZM107.861 40.6606L126.766 21.1626L136.718 30.1166L120.503 50.4225L107.861 40.6606ZM62.975 90.9598C56.8591 100.342 50.3031 110.041 41.3235 116.944C40.2246 117.787 41.4166 119.589 42.5225 118.739C51.8233 111.585 58.5632 101.651 64.912 91.9259C65.671 90.7596 63.7224 89.805 62.975 90.9598ZM66.5929 94.4985C64.3696 104.977 56.2491 114.905 47.6373 120.958C46.5012 121.759 47.6956 123.551 48.8387 122.753C57.9184 116.367 66.3625 105.96 68.7092 94.9222C68.9979 93.5556 66.8816 93.1412 66.5929 94.4985ZM117.011 9.75477C110.886 19.1371 104.346 28.8314 95.3569 35.739C94.265 36.5818 95.4501 38.3861 96.5559 37.534C105.854 30.3843 112.601 20.4502 118.936 10.7209C119.7 9.55455 117.758 8.60701 117.011 9.75477ZM120.629 13.2982C118.405 23.7724 110.278 33.6949 101.673 39.7527C100.53 40.5559 101.731 42.3485 102.87 41.5523C111.947 35.1616 120.398 24.7619 122.74 13.7172C123.031 12.3576 120.917 11.9362 120.629 13.2982ZM60.74 62.6498C64.9237 58.6733 69.403 54.9972 73.2304 50.6669C74.1524 49.6216 72.532 48.1944 71.617 49.2328C67.7873 53.5678 63.3033 57.2415 59.1197 61.2203C58.1139 62.1795 59.7389 63.5996 60.74 62.6498ZM57.348 76.2158C60.6516 71.9273 63.7154 67.4317 67.5824 63.6113C71.0909 60.1331 75.9148 58.2659 78.2475 53.6911C78.8831 52.4526 76.9531 51.4887 76.3222 52.725C74.1663 56.9435 69.3145 59.0039 65.962 62.1772C62.0368 65.9022 59.0219 70.5165 55.7322 74.7863C54.8871 75.8828 56.4959 77.317 57.348 76.2158Z" fill="#E1E1E1"/>
</g>
<defs>
<clipPath id="clip0_82_1118">
<rect width="149" height="149" fill="white"/>
</clipPath>
</defs>
</svg>
