<svg width="75" height="90" viewBox="0 0 99 99" fill="none" xmlns="http://www.w3.org/2000/svg">
<path d="M19.4666 35.4708C23.8249 35.4708 27.358 31.9377 27.358 27.5794C27.358 23.2211 23.8249 19.688 19.4666 19.688C15.1083 19.688 11.5752 23.2211 11.5752 27.5794C11.5752 31.9377 15.1083 35.4708 19.4666 35.4708Z" fill="url(#paint0_radial_74_673)"/>
<path d="M19.4666 35.4708C23.8249 35.4708 27.358 31.9377 27.358 27.5794C27.358 23.2211 23.8249 19.688 19.4666 19.688C15.1083 19.688 11.5752 23.2211 11.5752 27.5794C11.5752 31.9377 15.1083 35.4708 19.4666 35.4708Z" fill="url(#paint1_radial_74_673)"/>
<g filter="url(#filter0_i_74_673)">
<path d="M7.07408 18.0197C9.36027 18.0197 11.2136 16.1664 11.2136 13.8802C11.2136 11.594 9.36027 9.74072 7.07408 9.74072C4.78789 9.74072 2.93457 11.594 2.93457 13.8802C2.93457 16.1664 4.78789 18.0197 7.07408 18.0197Z" fill="url(#paint2_radial_74_673)"/>
<path d="M7.07408 18.0197C9.36027 18.0197 11.2136 16.1664 11.2136 13.8802C11.2136 11.594 9.36027 9.74072 7.07408 9.74072C4.78789 9.74072 2.93457 11.594 2.93457 13.8802C2.93457 16.1664 4.78789 18.0197 7.07408 18.0197Z" fill="url(#paint3_radial_74_673)"/>
</g>
<g filter="url(#filter1_i_74_673)">
<path d="M40.7693 6.66459C45.0376 2.39728 50.826 0 56.8615 0C62.897 0 68.6854 2.39728 72.9537 6.66459L92.3354 26.0463C96.6027 30.3145 99 36.103 99 42.1385C99 48.174 96.6027 53.9624 92.3354 58.2307L58.2307 92.3354C53.9624 96.6027 48.174 99 42.1385 99C36.103 99 30.3145 96.6027 26.0463 92.3354L6.66459 72.9537C2.39728 68.6855 0 62.897 0 56.8615C0 50.826 2.39728 45.0376 6.66459 40.7693L40.7693 6.66459V6.66459Z" fill="url(#paint4_linear_74_673)"/>
<path d="M40.7693 6.66459C45.0376 2.39728 50.826 0 56.8615 0C62.897 0 68.6854 2.39728 72.9537 6.66459L92.3354 26.0463C96.6027 30.3145 99 36.103 99 42.1385C99 48.174 96.6027 53.9624 92.3354 58.2307L58.2307 92.3354C53.9624 96.6027 48.174 99 42.1385 99C36.103 99 30.3145 96.6027 26.0463 92.3354L6.66459 72.9537C2.39728 68.6855 0 62.897 0 56.8615C0 50.826 2.39728 45.0376 6.66459 40.7693L40.7693 6.66459V6.66459Z" fill="url(#paint5_radial_74_673)"/>
<path d="M40.7693 6.66459C45.0376 2.39728 50.826 0 56.8615 0C62.897 0 68.6854 2.39728 72.9537 6.66459L92.3354 26.0463C96.6027 30.3145 99 36.103 99 42.1385C99 48.174 96.6027 53.9624 92.3354 58.2307L58.2307 92.3354C53.9624 96.6027 48.174 99 42.1385 99C36.103 99 30.3145 96.6027 26.0463 92.3354L6.66459 72.9537C2.39728 68.6855 0 62.897 0 56.8615C0 50.826 2.39728 45.0376 6.66459 40.7693L40.7693 6.66459V6.66459Z" fill="url(#paint6_radial_74_673)"/>
<path d="M40.7693 6.66459C45.0376 2.39728 50.826 0 56.8615 0C62.897 0 68.6854 2.39728 72.9537 6.66459L92.3354 26.0463C96.6027 30.3145 99 36.103 99 42.1385C99 48.174 96.6027 53.9624 92.3354 58.2307L58.2307 92.3354C53.9624 96.6027 48.174 99 42.1385 99C36.103 99 30.3145 96.6027 26.0463 92.3354L6.66459 72.9537C2.39728 68.6855 0 62.897 0 56.8615C0 50.826 2.39728 45.0376 6.66459 40.7693L40.7693 6.66459V6.66459Z" fill="url(#paint7_radial_74_673)"/>
<path d="M40.7693 6.66459C45.0376 2.39728 50.826 0 56.8615 0C62.897 0 68.6854 2.39728 72.9537 6.66459L92.3354 26.0463C96.6027 30.3145 99 36.103 99 42.1385C99 48.174 96.6027 53.9624 92.3354 58.2307L58.2307 92.3354C53.9624 96.6027 48.174 99 42.1385 99C36.103 99 30.3145 96.6027 26.0463 92.3354L6.66459 72.9537C2.39728 68.6855 0 62.897 0 56.8615C0 50.826 2.39728 45.0376 6.66459 40.7693L40.7693 6.66459V6.66459Z" fill="url(#paint8_radial_74_673)"/>
<path d="M40.7693 6.66459C45.0376 2.39728 50.826 0 56.8615 0C62.897 0 68.6854 2.39728 72.9537 6.66459L92.3354 26.0463C96.6027 30.3145 99 36.103 99 42.1385C99 48.174 96.6027 53.9624 92.3354 58.2307L58.2307 92.3354C53.9624 96.6027 48.174 99 42.1385 99C36.103 99 30.3145 96.6027 26.0463 92.3354L6.66459 72.9537C2.39728 68.6855 0 62.897 0 56.8615C0 50.826 2.39728 45.0376 6.66459 40.7693L40.7693 6.66459V6.66459Z" fill="url(#paint9_radial_74_673)"/>
<path d="M40.7693 6.66459C45.0376 2.39728 50.826 0 56.8615 0C62.897 0 68.6854 2.39728 72.9537 6.66459L92.3354 26.0463C96.6027 30.3145 99 36.103 99 42.1385C99 48.174 96.6027 53.9624 92.3354 58.2307L58.2307 92.3354C53.9624 96.6027 48.174 99 42.1385 99C36.103 99 30.3145 96.6027 26.0463 92.3354L6.66459 72.9537C2.39728 68.6855 0 62.897 0 56.8615C0 50.826 2.39728 45.0376 6.66459 40.7693L40.7693 6.66459V6.66459Z" fill="url(#paint10_radial_74_673)"/>
</g>
<g filter="url(#filter2_f_74_673)">
<path d="M83.2717 35.4281L63.5743 15.7307C59.4078 11.5642 52.6527 11.5642 48.4863 15.7307L15.7302 48.4868C11.5637 52.6532 11.5637 59.4083 15.7302 63.5748L35.4276 83.2722C39.594 87.4386 46.3492 87.4386 50.5156 83.2722L83.2717 50.5161C87.4381 46.3497 87.4381 39.5945 83.2717 35.4281Z" fill="url(#paint11_linear_74_673)"/>
<path d="M83.2717 35.4281L63.5743 15.7307C59.4078 11.5642 52.6527 11.5642 48.4863 15.7307L15.7302 48.4868C11.5637 52.6532 11.5637 59.4083 15.7302 63.5748L35.4276 83.2722C39.594 87.4386 46.3492 87.4386 50.5156 83.2722L83.2717 50.5161C87.4381 46.3497 87.4381 39.5945 83.2717 35.4281Z" fill="url(#paint12_linear_74_673)"/>
<path d="M83.586 35.1129L63.8886 15.4155C59.5486 11.0754 52.512 11.0754 48.1719 15.4155L15.4158 48.1716C11.0758 52.5116 11.0758 59.5482 15.4158 63.8883L35.1132 83.5857C39.4533 87.9257 46.4899 87.9257 50.8299 83.5857L83.586 50.8296C87.9261 46.4895 87.9261 39.4529 83.586 35.1129Z" stroke="url(#paint13_linear_74_673)" stroke-width="0.88907"/>
</g>
<g filter="url(#filter3_i_74_673)">
<path d="M11.5761 52.1392C17.8985 52.1392 23.0238 47.0139 23.0238 40.6916C23.0238 34.3692 17.8985 29.2439 11.5761 29.2439C5.25371 29.2439 0.128418 34.3692 0.128418 40.6916C0.128418 47.0139 5.25371 52.1392 11.5761 52.1392Z" fill="url(#paint14_radial_74_673)"/>
<path d="M11.5761 52.1392C17.8985 52.1392 23.0238 47.0139 23.0238 40.6916C23.0238 34.3692 17.8985 29.2439 11.5761 29.2439C5.25371 29.2439 0.128418 34.3692 0.128418 40.6916C0.128418 47.0139 5.25371 52.1392 11.5761 52.1392Z" fill="url(#paint15_radial_74_673)"/>
<path d="M11.5761 52.1392C17.8985 52.1392 23.0238 47.0139 23.0238 40.6916C23.0238 34.3692 17.8985 29.2439 11.5761 29.2439C5.25371 29.2439 0.128418 34.3692 0.128418 40.6916C0.128418 47.0139 5.25371 52.1392 11.5761 52.1392Z" fill="url(#paint16_radial_74_673)"/>
</g>
<g filter="url(#filter4_f_74_673)">
<path d="M47.3203 85.4722L52.484 13.2085C54.3823 12.5409 56.4307 12.4236 58.3927 12.8704C60.3548 13.3172 62.1505 14.3097 63.5725 15.7335L83.2708 35.4282C85.2709 37.4289 86.3945 40.142 86.3945 42.971C86.3945 45.8 85.2709 48.5132 83.2708 50.5139L50.5174 83.2673C49.5959 84.1921 48.5122 84.9395 47.3203 85.4722V85.4722Z" fill="url(#paint17_linear_74_673)"/>
<path d="M47.3203 85.4722L52.484 13.2085C54.3823 12.5409 56.4307 12.4236 58.3927 12.8704C60.3548 13.3172 62.1505 14.3097 63.5725 15.7335L83.2708 35.4282C85.2709 37.4289 86.3945 40.142 86.3945 42.971C86.3945 45.8 85.2709 48.5132 83.2708 50.5139L50.5174 83.2673C49.5959 84.1921 48.5122 84.9395 47.3203 85.4722V85.4722Z" fill="url(#paint18_radial_74_673)"/>
</g>
<path d="M69.5857 96.2582C74.9555 96.2582 79.3085 91.9052 79.3085 86.5354C79.3085 81.1656 74.9555 76.8125 69.5857 76.8125C64.2159 76.8125 59.8628 81.1656 59.8628 86.5354C59.8628 91.9052 64.2159 96.2582 69.5857 96.2582Z" fill="url(#paint19_radial_74_673)"/>
<path d="M69.5857 96.2582C74.9555 96.2582 79.3085 91.9052 79.3085 86.5354C79.3085 81.1656 74.9555 76.8125 69.5857 76.8125C64.2159 76.8125 59.8628 81.1656 59.8628 86.5354C59.8628 91.9052 64.2159 96.2582 69.5857 96.2582Z" fill="url(#paint20_radial_74_673)"/>
<g filter="url(#filter5_i_74_673)">
<path d="M82.3392 88.509C91.5311 88.509 98.9826 81.0575 98.9826 71.8656C98.9826 62.6737 91.5311 55.2222 82.3392 55.2222C73.1473 55.2222 65.6958 62.6737 65.6958 71.8656C65.6958 81.0575 73.1473 88.509 82.3392 88.509Z" fill="url(#paint21_radial_74_673)"/>
<path d="M82.3392 88.509C91.5311 88.509 98.9826 81.0575 98.9826 71.8656C98.9826 62.6737 91.5311 55.2222 82.3392 55.2222C73.1473 55.2222 65.6958 62.6737 65.6958 71.8656C65.6958 81.0575 73.1473 88.509 82.3392 88.509Z" fill="url(#paint22_radial_74_673)"/>
<path d="M82.3392 88.509C91.5311 88.509 98.9826 81.0575 98.9826 71.8656C98.9826 62.6737 91.5311 55.2222 82.3392 55.2222C73.1473 55.2222 65.6958 62.6737 65.6958 71.8656C65.6958 81.0575 73.1473 88.509 82.3392 88.509Z" fill="url(#paint23_radial_74_673)"/>
</g>
<path d="M82.3392 88.509C91.5311 88.509 98.9826 81.0575 98.9826 71.8656C98.9826 62.6737 91.5311 55.2222 82.3392 55.2222C73.1473 55.2222 65.6958 62.6737 65.6958 71.8656C65.6958 81.0575 73.1473 88.509 82.3392 88.509Z" fill="url(#paint24_radial_74_673)"/>
<defs>
<filter id="filter0_i_74_673" x="2.93457" y="9.38509" width="8.63444" height="8.63468" filterUnits="userSpaceOnUse" color-interpolation-filters="sRGB">
<feFlood flood-opacity="0" result="BackgroundImageFix"/>
<feBlend mode="normal" in="SourceGraphic" in2="BackgroundImageFix" result="shape"/>
<feColorMatrix in="SourceAlpha" type="matrix" values="0 0 0 0 0 0 0 0 0 0 0 0 0 0 0 0 0 0 127 0" result="hardAlpha"/>
<feOffset dx="0.355628" dy="-0.355628"/>
<feGaussianBlur stdDeviation="1.42251"/>
<feComposite in2="hardAlpha" operator="arithmetic" k2="-1" k3="1"/>
<feColorMatrix type="matrix" values="0 0 0 0 0.85098 0 0 0 0 0.737255 0 0 0 0 0.92549 0 0 0 1 0"/>
<feBlend mode="normal" in2="shape" result="effect1_innerShadow_74_673"/>
</filter>
<filter id="filter1_i_74_673" x="0" y="0" width="100.067" height="99" filterUnits="userSpaceOnUse" color-interpolation-filters="sRGB">
<feFlood flood-opacity="0" result="BackgroundImageFix"/>
<feBlend mode="normal" in="SourceGraphic" in2="BackgroundImageFix" result="shape"/>
<feColorMatrix in="SourceAlpha" type="matrix" values="0 0 0 0 0 0 0 0 0 0 0 0 0 0 0 0 0 0 127 0" result="hardAlpha"/>
<feOffset dx="1.06688"/>
<feGaussianBlur stdDeviation="1.77814"/>
<feComposite in2="hardAlpha" operator="arithmetic" k2="-1" k3="1"/>
<feColorMatrix type="matrix" values="0 0 0 0 0.94902 0 0 0 0 0.564706 0 0 0 0 0.811765 0 0 0 1 0"/>
<feBlend mode="normal" in2="shape" result="effect1_innerShadow_74_673"/>
</filter>
<filter id="filter2_f_74_673" x="9.0491" y="9.04873" width="80.9038" height="80.9036" filterUnits="userSpaceOnUse" color-interpolation-filters="sRGB">
<feFlood flood-opacity="0" result="BackgroundImageFix"/>
<feBlend mode="normal" in="SourceGraphic" in2="BackgroundImageFix" result="shape"/>
<feGaussianBlur stdDeviation="1.33361" result="effect1_foregroundBlur_74_673"/>
</filter>
<filter id="filter3_i_74_673" x="0.128418" y="28.8883" width="23.2511" height="23.2509" filterUnits="userSpaceOnUse" color-interpolation-filters="sRGB">
<feFlood flood-opacity="0" result="BackgroundImageFix"/>
<feBlend mode="normal" in="SourceGraphic" in2="BackgroundImageFix" result="shape"/>
<feColorMatrix in="SourceAlpha" type="matrix" values="0 0 0 0 0 0 0 0 0 0 0 0 0 0 0 0 0 0 127 0" result="hardAlpha"/>
<feOffset dx="0.355628" dy="-0.355628"/>
<feGaussianBlur stdDeviation="1.42251"/>
<feComposite in2="hardAlpha" operator="arithmetic" k2="-1" k3="1"/>
<feColorMatrix type="matrix" values="0 0 0 0 0.909804 0 0 0 0 0.843137 0 0 0 0 0.980392 0 0 0 1 0"/>
<feBlend mode="normal" in2="shape" result="effect1_innerShadow_74_673"/>
</filter>
<filter id="filter4_f_74_673" x="44.6531" y="9.93691" width="44.4086" height="78.2025" filterUnits="userSpaceOnUse" color-interpolation-filters="sRGB">
<feFlood flood-opacity="0" result="BackgroundImageFix"/>
<feBlend mode="normal" in="SourceGraphic" in2="BackgroundImageFix" result="shape"/>
<feGaussianBlur stdDeviation="1.33361" result="effect1_foregroundBlur_74_673"/>
</filter>
<filter id="filter5_i_74_673" x="65.6958" y="54.8665" width="34.7091" height="33.6425" filterUnits="userSpaceOnUse" color-interpolation-filters="sRGB">
<feFlood flood-opacity="0" result="BackgroundImageFix"/>
<feBlend mode="normal" in="SourceGraphic" in2="BackgroundImageFix" result="shape"/>
<feColorMatrix in="SourceAlpha" type="matrix" values="0 0 0 0 0 0 0 0 0 0 0 0 0 0 0 0 0 0 127 0" result="hardAlpha"/>
<feOffset dx="1.42251" dy="-0.355628"/>
<feGaussianBlur stdDeviation="1.77814"/>
<feComposite in2="hardAlpha" operator="arithmetic" k2="-1" k3="1"/>
<feColorMatrix type="matrix" values="0 0 0 0 0.792157 0 0 0 0 0.54902 0 0 0 0 0.894118 0 0 0 1 0"/>
<feBlend mode="normal" in2="shape" result="effect1_innerShadow_74_673"/>
</filter>
<radialGradient id="paint0_radial_74_673" cx="0" cy="0" r="1" gradientUnits="userSpaceOnUse" gradientTransform="translate(11.5758 27.5803) rotate(-8.079) scale(14.9779)">
<stop stop-color="#CEC4D1"/>
<stop offset="1" stop-color="#C8C1C9"/>
</radialGradient>
<radialGradient id="paint1_radial_74_673" cx="0" cy="0" r="1" gradientUnits="userSpaceOnUse" gradientTransform="translate(22.7419 27.5794) rotate(180) scale(11.1667)">
<stop offset="0.529" stop-color="#CEC5D1" stop-opacity="0"/>
<stop offset="1" stop-color="#E4DFE8"/>
</radialGradient>
<radialGradient id="paint2_radial_74_673" cx="0" cy="0" r="1" gradientUnits="userSpaceOnUse" gradientTransform="translate(9.61914 12.8735) rotate(168.14) scale(6.8303 6.46411)">
<stop offset="0.135" stop-color="#FFEDFF"/>
<stop offset="0.911" stop-color="#DBCBEA"/>
</radialGradient>
<radialGradient id="paint3_radial_74_673" cx="0" cy="0" r="1" gradientUnits="userSpaceOnUse" gradientTransform="translate(7.90822 16.2792) rotate(-100.366) scale(6.64921)">
<stop offset="0.818" stop-color="#DAD4E0" stop-opacity="0"/>
<stop offset="1" stop-color="#DAD4E0"/>
</radialGradient>
<linearGradient id="paint4_linear_74_673" x1="88.1461" y1="19.9117" x2="19.0227" y2="83.4803" gradientUnits="userSpaceOnUse">
<stop stop-color="#FFABBD"/>
<stop offset="1" stop-color="#F756E5"/>
</linearGradient>
<radialGradient id="paint5_radial_74_673" cx="0" cy="0" r="1" gradientUnits="userSpaceOnUse" gradientTransform="translate(75.4263 55.184) rotate(-111.029) scale(66.128 90.9882)">
<stop offset="0.713" stop-color="#E082A1" stop-opacity="0"/>
<stop offset="0.965" stop-color="#E1959A"/>
</radialGradient>
<radialGradient id="paint6_radial_74_673" cx="0" cy="0" r="1" gradientUnits="userSpaceOnUse" gradientTransform="translate(15.2423 37.9136) rotate(-46.1412) scale(39.4566 27.9437)">
<stop stop-color="#E775AB"/>
<stop offset="1" stop-color="#E775AB" stop-opacity="0"/>
</radialGradient>
<radialGradient id="paint7_radial_74_673" cx="0" cy="0" r="1" gradientUnits="userSpaceOnUse" gradientTransform="translate(8.35382 50.8052) rotate(119.055) scale(9.15357 6.83332)">
<stop stop-color="#E551C0"/>
<stop offset="1" stop-color="#E551C0" stop-opacity="0"/>
</radialGradient>
<radialGradient id="paint8_radial_74_673" cx="0" cy="0" r="1" gradientUnits="userSpaceOnUse" gradientTransform="translate(69.6997 78.5904) rotate(158.405) scale(22.9485 24.3981)">
<stop offset="0.187" stop-color="#D24BB4"/>
<stop offset="1" stop-color="#D24BB4" stop-opacity="0"/>
</radialGradient>
<radialGradient id="paint9_radial_74_673" cx="0" cy="0" r="1" gradientUnits="userSpaceOnUse" gradientTransform="translate(92.1469 62.8076) rotate(-103.241) scale(19.4087 17.956)">
<stop offset="0.329" stop-color="#E588A9"/>
<stop offset="1" stop-color="#E588A9" stop-opacity="0"/>
</radialGradient>
<radialGradient id="paint10_radial_74_673" cx="0" cy="0" r="1" gradientUnits="userSpaceOnUse" gradientTransform="translate(82.3672 32.3587) rotate(-4.58391) scale(16.687 22.7549)">
<stop stop-color="#FFA7C0"/>
<stop offset="1" stop-color="#FFA7C0" stop-opacity="0"/>
</radialGradient>
<linearGradient id="paint11_linear_74_673" x1="73.4217" y1="25.5781" x2="26.6916" y2="72.3082" gradientUnits="userSpaceOnUse">
<stop stop-color="#EE7BBE"/>
<stop offset="1" stop-color="#FF7BE6"/>
</linearGradient>
<linearGradient id="paint12_linear_74_673" x1="26.9707" y1="76.1431" x2="37.638" y2="65.2546" gradientUnits="userSpaceOnUse">
<stop offset="0.178" stop-color="#FF83E6"/>
<stop offset="1" stop-color="#FF83E6" stop-opacity="0"/>
</linearGradient>
<linearGradient id="paint13_linear_74_673" x1="28.6782" y1="25.4088" x2="39.0738" y2="36.7499" gradientUnits="userSpaceOnUse">
<stop offset="0.493" stop-color="#F89BB9"/>
<stop offset="1" stop-color="#F89BB9" stop-opacity="0"/>
</linearGradient>
<radialGradient id="paint14_radial_74_673" cx="0" cy="0" r="1" gradientUnits="userSpaceOnUse" gradientTransform="translate(15.6538 39.5348) rotate(171.772) scale(15.686 14.845)">
<stop offset="0.135" stop-color="#FFEDFF"/>
<stop offset="1" stop-color="#ECAEFF"/>
</radialGradient>
<radialGradient id="paint15_radial_74_673" cx="0" cy="0" r="1" gradientUnits="userSpaceOnUse" gradientTransform="translate(0.128419 48.0424) rotate(-25.398) scale(12.6715 18.2001)">
<stop offset="0.182" stop-color="#DBB6FF"/>
<stop offset="1" stop-color="#DBB6FF" stop-opacity="0"/>
</radialGradient>
<radialGradient id="paint16_radial_74_673" cx="0" cy="0" r="1" gradientUnits="userSpaceOnUse" gradientTransform="translate(13.8781 47.3316) rotate(-100.366) scale(18.3857 18.3857)">
<stop offset="0.818" stop-color="#DAD4E0" stop-opacity="0"/>
<stop offset="1" stop-color="#DAD4E0"/>
</radialGradient>
<linearGradient id="paint17_linear_74_673" x1="47.3203" y1="76.8126" x2="79.4229" y2="47.2493" gradientUnits="userSpaceOnUse">
<stop stop-color="#F068CB"/>
<stop offset="1" stop-color="#F068CB" stop-opacity="0"/>
</linearGradient>
<radialGradient id="paint18_radial_74_673" cx="0" cy="0" r="1" gradientUnits="userSpaceOnUse" gradientTransform="translate(71.0443 65.3258) rotate(131.285) scale(13.7924 10.5099)">
<stop offset="0.07" stop-color="#D35F9E"/>
<stop offset="1" stop-color="#D35F9E" stop-opacity="0"/>
</radialGradient>
<radialGradient id="paint19_radial_74_673" cx="0" cy="0" r="1" gradientUnits="userSpaceOnUse" gradientTransform="translate(68.5158 91.8693) rotate(-99.462) scale(12.301)">
<stop stop-color="#EDA5FF"/>
<stop offset="1" stop-color="#C28CDD"/>
</radialGradient>
<radialGradient id="paint20_radial_74_673" cx="0" cy="0" r="1" gradientUnits="userSpaceOnUse" gradientTransform="translate(76.9863 82.7657) rotate(129.237) scale(9.7911 13.4839)">
<stop offset="0.381" stop-color="#D89AFF"/>
<stop offset="1" stop-color="#D89AFF" stop-opacity="0"/>
</radialGradient>
<radialGradient id="paint21_radial_74_673" cx="0" cy="0" r="1" gradientUnits="userSpaceOnUse" gradientTransform="translate(93.5444 67.3454) rotate(167.646) scale(28.506 26.9776)">
<stop offset="0.218" stop-color="#FFEDFF"/>
<stop offset="1" stop-color="#ECAEFF"/>
</radialGradient>
<radialGradient id="paint22_radial_74_673" cx="0" cy="0" r="1" gradientUnits="userSpaceOnUse" gradientTransform="translate(65.6973 82.5481) rotate(-29.477) scale(16.3443 23.4755)">
<stop offset="0.182" stop-color="#DBB6FF"/>
<stop offset="1" stop-color="#DBB6FF" stop-opacity="0"/>
</radialGradient>
<radialGradient id="paint23_radial_74_673" cx="0" cy="0" r="1" gradientUnits="userSpaceOnUse" gradientTransform="translate(85.6934 81.5179) rotate(-100.366) scale(26.7307 26.7307)">
<stop offset="0.818" stop-color="#DAD4E0" stop-opacity="0"/>
<stop offset="1" stop-color="#DAD4E0"/>
</radialGradient>
<radialGradient id="paint24_radial_74_673" cx="0" cy="0" r="1" gradientUnits="userSpaceOnUse" gradientTransform="translate(86.4689 60.9015) rotate(98.499) scale(27.9151 34.2542)">
<stop offset="0.681" stop-color="#F3B7FF" stop-opacity="0"/>
<stop offset="1" stop-color="#E697FF"/>
</radialGradient>
</defs>
</svg>
