<svg width="107" height="107" style="z-index: 3" viewBox="0 0 107 107" fill="none" xmlns="http://www.w3.org/2000/svg">
<path d="M31.2083 41.2081C33.6706 41.2081 35.6667 38.713 35.6667 35.6352C35.6667 32.5573 33.6706 30.0623 31.2083 30.0623C28.7461 30.0623 26.75 32.5573 26.75 35.6352C26.75 38.713 28.7461 41.2081 31.2083 41.2081Z" fill="black"/>
<path opacity="0.5" d="M31.2082 8.91675C18.9165 8.91675 8.9165 20.9141 8.9165 35.6667C8.9165 50.4194 18.9165 62.4167 31.2082 62.4167C43.4998 62.4167 53.4998 50.4194 53.4998 35.6667C53.4998 20.9141 43.4998 8.91675 31.2082 8.91675ZM31.2082 41.2085C29.8848 41.045 28.6777 40.3707 27.8447 39.3294C27.0117 38.2882 26.6188 36.9625 26.7498 35.6355C26.6188 34.3085 27.0117 32.9829 27.8447 31.9416C28.6777 30.9004 29.8848 30.226 31.2082 30.0626C32.5316 30.226 33.7386 30.9004 34.5716 31.9416C35.4046 32.9829 35.7976 34.3085 35.6665 35.6355C35.7976 36.9625 35.4046 38.2882 34.5716 39.3294C33.7386 40.3707 32.5316 41.045 31.2082 41.2085Z" fill="black"/>
<path opacity="0.25" d="M101.472 90.7272C96.3419 84.6255 93.5593 76.8927 93.6252 68.9215V35.6667C93.6252 20.9141 83.6251 8.91675 71.3335 8.91675H31.2085C43.5001 8.91675 53.5002 20.9141 53.5002 35.6667V68.9215C53.4354 79.0178 56.9767 88.8056 63.4868 96.523C63.9056 97.0121 64.4253 97.4049 65.0101 97.6742C65.595 97.9436 66.2312 98.0832 66.8752 98.0834H98.0835C98.9358 98.0835 99.7702 97.8392 100.488 97.3796C101.206 96.9201 101.777 96.2644 102.133 95.4903C102.49 94.7162 102.617 93.8561 102.5 93.0119C102.383 92.1677 102.026 91.3748 101.472 90.7272Z" fill="black"/>
<path d="M53.5002 35.6667C53.5002 50.4194 43.5001 62.4167 31.2085 62.4167H53.5002V35.6667Z" fill="black"/>
</svg>
