<svg width="128" height="128" viewBox="0 0 128 128" fill="none" xmlns="http://www.w3.org/2000/svg">
<path d="M56.39 103.2C56.39 103.2 56.11 108.2 55.33 111.22C54.56 114.25 51.95 116.29 52.8 119.81C53.36 122.13 56.39 123.82 62.44 123.82C68.49 123.82 72.6 122.2 72.72 119.1C72.86 115.51 70.68 114.24 70.33 110.3C69.98 106.36 70.12 102.7 70.12 102.7L56.39 103.2Z" fill="#855B51"/>
<path d="M21.15 87.4999C21.15 87.4999 16.55 88.4399 14.86 88.9999C13.17 89.5599 11.67 89.9399 11.29 91.5299C10.91 93.1199 10.54 97.1599 16.64 99.8799C22.74 102.6 32.5 101.66 32.5 101.66C32.5 101.66 31.47 105.7 34.85 107.57C38.23 109.45 44.8 108.98 49.3 107.48C53.8 105.98 55.21 105.04 55.21 105.04C55.21 105.04 57.46 108.98 65.16 108.89C72.86 108.8 75.01 105.98 75.01 105.98C75.01 105.98 82.99 110.58 89.74 109.17C96.49 107.76 94.43 101.38 94.43 101.38C94.43 101.38 102.88 103.07 109.92 100.16C116.96 97.2499 117.52 93.5899 117.33 92.4599C117.14 91.3299 115.69 89.2199 113.34 89.4099C110.99 89.5999 105.6 87.6699 103.44 86.3599C101.28 85.0499 96.49 82.6999 95.65 82.3199C94.81 81.9399 93.16 80.7199 93.44 79.6899C93.72 78.6599 94.14 78.3799 96.02 78.5599C97.9 78.7499 103.15 78.7499 105.59 76.8699C108.03 74.9899 109.53 72.3699 109.25 70.8599C108.97 69.3599 106.25 68.1399 106.25 68.1399C106.25 68.1399 92.17 61.6599 91.05 61.1899C89.92 60.7199 87.21 59.3099 87.3 58.0899C87.39 56.7799 96.12 57.7099 96.97 52.3599C97.82 47.0099 95.37 47.0099 93.4 45.8799C91.43 44.7499 85.7 43.0599 85.7 43.0599C85.7 43.0599 81.01 40.0599 80.16 39.4899C79.32 38.9299 77.91 37.9899 78 37.2399C78.09 36.4899 82.86 37.9699 87.01 36.6799C90.01 35.7399 90.39 33.7199 89.78 31.9399C89.48 31.0699 84.1 28.6099 84.1 28.6099L55.31 24.8999C55.31 24.8999 36.26 31.2799 35.6 31.5599C34.94 31.8399 34.57 33.0599 35.6 34.3799C36.63 35.6899 38.32 37.6599 41.98 37.5699C45.64 37.4799 47.99 35.8799 48.64 36.9099C49.3 37.9399 47.68 39.5499 46.58 40.1899L40.48 43.7599C40.48 43.7599 29.87 48.2599 29.31 50.9899C28.75 53.7199 29.87 55.0599 31.56 56.2499C32.97 57.2399 35.64 57.6099 37.38 57.5599C38.6 57.5299 39.37 57.1899 39.68 58.3099C40.1 59.8599 37.47 61.2199 35.03 62.0599C32.59 62.8999 27.8 65.0599 27.8 65.0599C27.8 65.0599 19.92 66.9399 19.45 67.7799C18.98 68.6199 18.14 72.7499 21.42 75.6599C24.7 78.5699 30.71 79.3199 30.71 79.3199C30.71 79.3199 29.96 81.6699 28.46 82.9799C26.2974 84.8904 23.8255 86.4189 21.15 87.4999Z" fill="#027F1C"/>
<path d="M62.4401 4.3501C64.7901 4.3501 64.9701 8.3901 69.5701 14.0201C74.5501 20.1201 80.2001 25.4101 82.5001 27.2501C85.0101 29.2701 88.5301 30.7001 88.6901 31.1201C88.8501 31.5401 85.0501 32.9701 79.7001 33.2601C74.3501 33.5401 69.2801 31.5701 69.2801 31.5701C69.2801 31.5701 73.1301 40.1101 71.0601 42.0801C69.3901 43.6701 63.5501 43.4901 59.3301 37.2901C55.1101 31.0901 55.0101 29.1201 55.0101 29.1201C55.0101 29.1201 48.3501 33.1601 42.4301 33.2501C36.5101 33.3401 35.5801 32.0501 35.5801 31.5601C35.5801 31.0701 42.2401 28.0901 44.8701 26.1201C47.5001 24.1501 53.3201 17.7001 57.0001 12.4201C59.8201 8.3901 60.5701 4.3501 62.4401 4.3501Z" fill="#02AB47"/>
<path d="M56.9998 39.0801C56.9998 39.0801 54.5598 41.6101 50.7098 41.9001C46.8598 42.1901 44.7998 41.2401 44.7998 41.2401C44.7998 41.2401 40.0598 43.1601 35.7898 45.6501C32.4498 47.6001 29.3798 50.1101 29.4498 50.5301C29.5198 50.9501 30.4398 52.5001 36.6298 52.5001C42.8198 52.5001 43.3898 50.9201 46.4798 51.0001C50.4198 51.0901 52.6698 58.0201 59.4298 58.1301C65.0598 58.2201 64.2198 54.0901 67.3098 53.7201C70.4098 53.3401 71.8198 55.8101 76.1798 55.9301C88.1898 56.2601 97.6698 50.8601 96.3098 47.6201C95.8598 46.5401 92.7598 45.0301 88.2398 43.4401C83.9698 41.9401 82.3698 41.0501 82.3698 41.0501C82.3698 41.0501 81.6698 42.5501 79.5098 43.2101C77.4898 43.8201 73.9698 42.4601 73.9698 42.4601C73.9698 42.4601 73.9698 45.3701 70.6898 45.9301C66.2798 46.6801 62.3398 44.7101 60.5498 43.1101C58.7598 41.5101 56.9998 39.0801 56.9998 39.0801ZM75.5798 78.6801C72.5098 79.8901 69.2898 87.6001 62.7198 85.9101C56.1498 84.2201 55.3098 73.3301 55.3098 73.3301C55.3098 73.3301 40.1398 86.5301 35.5998 82.3401C31.8898 78.9101 38.6998 73.5601 38.6998 73.5601C38.6998 73.5601 31.6598 75.7701 25.5598 73.1401C19.4598 70.5101 19.3398 68.4201 19.4598 67.7901C19.5798 67.1601 23.9298 65.6401 27.5298 64.4101C30.4898 63.4001 33.9398 62.4401 33.9398 62.4401C33.9398 62.4401 37.4798 63.8501 36.6398 65.6301C35.7998 67.4101 32.4198 68.6301 33.7298 69.9501C35.0398 71.2601 38.6098 68.8201 39.8298 67.9801C41.0498 67.1401 44.5198 65.3601 46.7798 65.2601C51.7498 65.0301 53.7298 68.8301 58.4198 67.9801C63.1098 67.1301 66.5598 63.3801 71.5398 62.7201C76.5098 62.0601 79.6098 64.4101 84.4898 63.8501C89.3698 63.2901 91.0798 61.2201 91.0798 61.2201C91.0798 61.2201 96.0498 63.1001 100.28 64.8801C104.5 66.6601 108.07 69.2001 108.07 69.2001C108.07 69.2001 105.07 72.2001 99.7198 72.8601C94.3698 73.5201 91.5498 70.8001 90.5198 70.2301C89.4898 69.6601 86.2998 66.9501 85.4498 67.9801C84.6098 69.0101 88.9198 71.4501 90.7998 72.8601C92.6798 74.2701 96.3898 77.2901 90.8898 80.2701C88.1198 81.7701 84.5998 81.3501 82.7198 80.9301C77.5498 79.7801 77.6598 77.8701 75.5798 78.6801Z" fill="#02AB47"/>
<path d="M75.8699 83.9399C75.8699 83.9399 70.3299 90.6999 66.2999 92.7599C62.2699 94.8199 58.5099 94.8699 58.5099 94.8699C58.5099 94.8699 56.3999 97.0299 56.8199 100.13C57.1199 102.35 59.7299 104.49 65.4499 104.12C71.1699 103.75 72.5799 102.43 72.7699 100.74C72.9599 99.0499 71.7799 97.4599 71.4099 96.6999C71.0299 95.9499 69.4899 94.1699 70.5199 93.5099C71.5499 92.8499 72.5799 93.8899 73.8999 95.8599C75.2099 97.8299 81.3099 108.34 89.2899 104.96C97.1799 101.62 87.5099 94.0699 89.4799 92.8499C91.4499 91.6299 96.4299 95.9499 104.12 95.4799C112.48 94.9699 114.35 90.7699 114.35 89.5199C114.35 89.0499 110.92 89.0499 108.06 88.3899C105.89 87.8899 102.76 85.9499 102.76 85.9499C102.76 85.9499 95.8599 88.8099 89.3899 87.9699C82.9199 87.1299 75.8699 83.9399 75.8699 83.9399ZM50.8099 81.3999C50.8099 81.3999 51.1899 87.7799 52.4099 90.0299C53.6299 92.2799 56.3499 94.5299 56.3499 94.5299C56.3499 94.5299 55.7399 97.4899 52.6899 99.7899C48.6999 102.8 41.5199 104.95 37.2999 103.83C33.0799 102.7 34.0199 99.7899 34.3899 98.6699C34.7699 97.5399 38.8899 92.9399 39.9299 91.4399C40.9599 89.9399 42.2799 87.9699 41.0599 87.6899C39.8399 87.4099 37.8699 90.4099 36.4599 92.0999C35.0499 93.7899 31.1999 97.4499 23.9799 96.4199C16.7599 95.3899 11.1999 91.2999 11.8599 90.4599C12.5199 89.6199 17.5899 87.8799 20.3999 87.0299C23.2199 86.1899 28.4699 82.9899 28.4699 82.9899C28.4699 82.9899 27.9999 85.7099 30.4399 86.6499C33.4999 87.8299 37.7599 87.4899 43.1999 85.3399C47.3199 83.7099 50.8099 81.3999 50.8099 81.3999Z" fill="#02AB47"/>
<path d="M24.0801 88.8401C22.3501 90.3301 19.8601 90.9501 20.9101 92.5001C21.9701 94.0501 24.0101 92.2901 25.7001 90.9501C27.3901 89.6101 29.2901 88.2801 28.3001 87.0801C27.3201 85.8801 25.6301 87.5001 24.0801 88.8401ZM43.4401 95.0401C45.2801 96.4901 46.5401 92.4401 47.1701 90.8901C47.8001 89.3401 49.2501 87.0801 48.0101 86.3101C46.3201 85.2501 45.6201 87.3701 44.6301 89.8301C43.6401 92.2901 42.1001 93.9801 43.4401 95.0401ZM49.1401 67.4401C48.1301 66.6801 47.3801 67.3701 45.9701 69.4101C44.5601 71.4501 43.7201 72.9301 44.8401 73.7001C45.9701 74.4701 47.8701 71.7301 48.5701 70.6701C49.2701 69.6101 49.9901 68.0801 49.1401 67.4401ZM63.1701 69.2301C61.3601 69.6501 62.3101 71.4501 62.6801 73.1701C63.1001 75.1401 63.7401 78.2401 64.0201 79.0801C64.3701 80.1401 64.7901 81.6801 66.1301 81.3301C67.4701 80.9801 66.9901 79.0401 66.8301 78.1601C66.4801 76.1201 65.7001 72.9501 65.4901 71.9701C65.2801 70.9901 65.0001 68.8001 63.1701 69.2301ZM77.7901 88.7001C76.6701 89.7601 78.0701 91.2301 79.6901 93.0601C81.3101 94.8901 82.3601 96.8601 83.7001 96.0201C85.0401 95.1801 83.5601 93.3501 82.2201 91.8701C80.8901 90.3901 79.1301 87.4301 77.7901 88.7001ZM75.8401 67.3501C74.6401 68.4101 76.1901 69.8801 77.1101 71.2901C78.0301 72.7001 79.9301 74.8101 80.4901 75.3701C81.0501 75.9301 81.9201 77.0801 82.8801 76.5001C84.1001 75.7601 82.9501 74.2501 82.4601 73.6801C81.9701 73.1101 80.3501 70.8601 79.4301 69.8801C78.5101 68.9001 77.3401 66.0201 75.8401 67.3501ZM76.1001 45.6201C75.1201 47.0001 77.1601 48.4401 79.1301 49.5601C81.1001 50.6901 83.1701 51.9201 83.9201 50.6901C84.7601 49.2801 82.7201 48.1601 81.0301 47.1701C79.3401 46.1801 77.1601 44.1401 76.1001 45.6201ZM59.6301 47.7301C57.5201 47.5901 57.8001 49.4201 57.8701 51.3901C57.9401 53.3601 58.2901 54.4901 59.6301 54.4901C60.9701 54.4901 60.9701 52.4501 60.9701 51.3901C60.9701 50.3401 60.9701 47.8201 59.6301 47.7301ZM48.6001 47.9401C49.5401 49.4601 51.7001 47.3101 52.6101 46.5301C53.5301 45.7601 54.8601 44.6301 53.9501 43.5001C53.0301 42.3701 51.1301 43.9901 50.2201 44.8401C49.3101 45.6901 47.6901 46.4701 48.6001 47.9401ZM62.0601 26.9001C62.6301 30.8601 63.4201 32.5301 64.9301 32.0301C66.2801 31.5901 65.3501 29.1401 65.0301 26.8701C64.7201 24.5901 64.6701 22.6101 63.0001 22.8601C61.1301 23.1401 61.7201 24.5201 62.0601 26.9001ZM70.0501 25.5001C71.3101 27.4301 72.6001 28.5101 73.9201 27.6701C74.9301 27.0301 73.5301 25.1801 72.6801 24.0601C72.1001 23.3001 70.4401 20.1301 68.8901 21.4901C67.8401 22.4101 68.7401 23.4901 70.0501 25.5001ZM56.6001 20.9901C57.3301 21.6701 56.6001 23.0301 55.5401 24.1601C54.4801 25.2901 53.0101 27.3301 51.8801 26.2701C50.7501 25.2101 52.7201 23.4501 53.4301 22.6101C54.1401 21.7601 55.4801 19.9301 56.6001 20.9901Z" fill="#028B2B"/>
</svg>
