<svg width="100" height="116" style="margin-right: 30px; margin-top: -20px" viewBox="0 0 140 116" fill="none" xmlns="http://www.w3.org/2000/svg">
<ellipse cx="69.3233" cy="68.5444" rx="50.6294" ry="38.9457" fill="#279F62"/>
<ellipse cx="69.3233" cy="68.5444" rx="50.6294" ry="38.9457" fill="black" fill-opacity="0.2"/>
<ellipse cx="69.3233" cy="68.5444" rx="50.6294" ry="38.9457" fill="black" fill-opacity="0.2"/>
<ellipse cx="69.3233" cy="68.5444" rx="50.6294" ry="38.9457" fill="black" fill-opacity="0.2"/>
<ellipse cx="69.3233" cy="68.5444" rx="50.6294" ry="38.9457" fill="black" fill-opacity="0.2"/>
<ellipse cx="69.3233" cy="68.5444" rx="50.6294" ry="38.9457" fill="black" fill-opacity="0.2"/>
<path d="M64.3648 62.2812C60.7094 62.4806 60.0866 56.2116 52.4534 47.8444C44.1893 38.7784 34.9518 31.0291 31.2179 28.3622C27.1422 25.433 21.5454 23.5073 21.2609 22.8676C20.9764 22.2278 26.766 19.681 35.0634 18.7759C43.3616 17.8864 51.4153 20.5205 51.4153 20.5205C51.4153 20.5205 44.7019 7.5631 47.7546 4.32308C50.2174 1.70809 59.3169 1.49252 66.4073 10.7786C73.4977 20.0647 73.8204 23.1206 73.8204 23.1206C73.8204 23.1206 83.8373 16.2712 93.0383 15.6288C102.239 14.9865 103.795 16.9142 103.837 17.6764C103.879 18.4386 93.7717 23.6392 89.8479 26.9267C85.9241 30.2142 77.4183 40.7412 72.142 49.2666C68.0975 55.7746 67.2737 62.1225 64.3648 62.2812Z" fill="#02AB47"/>
<path d="M79.9435 65.3967C76.288 65.5961 75.6652 59.3271 68.032 50.9599C59.7679 41.8938 50.5304 34.1446 46.7966 31.4776C42.7208 28.5485 37.124 26.6228 36.8395 25.9831C36.555 25.3433 42.3446 22.7965 50.642 21.8914C58.9403 21.0019 66.9939 23.636 66.9939 23.636C66.9939 23.636 60.2805 10.6786 63.3332 7.43855C65.796 4.82357 74.8955 4.608 81.9859 13.8941C89.0763 23.1802 89.399 26.2361 89.399 26.2361C89.399 26.2361 99.4159 19.3866 108.617 18.7443C117.818 18.1019 119.374 20.0296 119.416 20.7918C119.457 21.554 109.35 26.7546 105.427 30.0422C101.503 33.3297 92.9969 43.8567 87.7207 52.3821C83.6761 58.8901 82.8523 65.238 79.9435 65.3967Z" fill="#02AB47"/>
<path d="M79.9435 65.3967C76.288 65.5961 75.6652 59.3271 68.032 50.9599C59.7679 41.8938 50.5304 34.1446 46.7966 31.4776C42.7208 28.5485 37.124 26.6228 36.8395 25.9831C36.555 25.3433 42.3446 22.7965 50.642 21.8914C58.9403 21.0019 66.9939 23.636 66.9939 23.636C66.9939 23.636 60.2805 10.6786 63.3332 7.43855C65.796 4.82357 74.8955 4.608 81.9859 13.8941C89.0763 23.1802 89.399 26.2361 89.399 26.2361C89.399 26.2361 99.4159 19.3866 108.617 18.7443C117.818 18.1019 119.374 20.0296 119.416 20.7918C119.457 21.554 109.35 26.7546 105.427 30.0422C101.503 33.3297 92.9969 43.8567 87.7207 52.3821C83.6761 58.8901 82.8523 65.238 79.9435 65.3967Z" fill="black" fill-opacity="0.2"/>
<path d="M79.9435 65.3967C76.288 65.5961 75.6652 59.3271 68.032 50.9599C59.7679 41.8938 50.5304 34.1446 46.7966 31.4776C42.7208 28.5485 37.124 26.6228 36.8395 25.9831C36.555 25.3433 42.3446 22.7965 50.642 21.8914C58.9403 21.0019 66.9939 23.636 66.9939 23.636C66.9939 23.636 60.2805 10.6786 63.3332 7.43855C65.796 4.82357 74.8955 4.608 81.9859 13.8941C89.0763 23.1802 89.399 26.2361 89.399 26.2361C89.399 26.2361 99.4159 19.3866 108.617 18.7443C117.818 18.1019 119.374 20.0296 119.416 20.7918C119.457 21.554 109.35 26.7546 105.427 30.0422C101.503 33.3297 92.9969 43.8567 87.7207 52.3821C83.6761 58.8901 82.8523 65.238 79.9435 65.3967Z" fill="black" fill-opacity="0.2"/>
<path d="M79.5586 42.0613C79.5586 42.0613 83.3597 46.0026 89.3573 46.4544C95.3549 46.9061 98.5641 45.4262 98.5641 45.4262C98.5641 45.4262 105.948 48.4172 112.6 52.2962C117.803 55.334 122.586 59.2441 122.477 59.8984C122.368 60.5527 120.934 62.9673 111.292 62.9673C101.649 62.9673 100.761 60.506 95.9469 60.6306C89.8091 60.7708 86.304 71.5666 75.773 71.7379C67.0025 71.8781 68.311 65.4443 63.4973 64.8679C58.6681 64.2759 56.4715 68.1238 49.6794 68.3107C30.9699 68.8248 16.2017 60.4125 18.3203 55.3651C19.0213 53.6827 23.8506 51.3304 30.892 48.8534C37.5439 46.5167 40.0364 45.1302 40.0364 45.1302C40.0364 45.1302 41.1269 47.4669 44.4918 48.4951C47.6386 49.4454 53.1222 47.3267 53.1222 47.3267C53.1222 47.3267 53.1222 51.86 58.2319 52.7324C65.1019 53.9008 71.2398 50.8319 74.0283 48.3393C76.8168 45.8468 79.5586 42.0613 79.5586 42.0613ZM50.6141 103.751C55.3966 105.636 60.4128 117.647 70.6478 115.014C80.8827 112.382 82.1913 95.4169 82.1913 95.4169C82.1913 95.4169 105.824 115.98 112.896 109.453C118.676 104.11 108.067 95.7752 108.067 95.7752C108.067 95.7752 119.034 99.218 128.537 95.1209C138.039 91.0238 138.226 87.768 138.039 86.7865C137.853 85.8051 131.076 83.4372 125.468 81.5211C120.857 79.9477 115.482 78.4522 115.482 78.4522C115.482 78.4522 109.967 80.6487 111.276 83.4216C112.585 86.1946 117.85 88.0951 115.809 90.1515C113.768 92.1922 108.207 88.3911 106.306 87.0825C104.406 85.774 99.0003 83.001 95.4796 82.8452C87.7372 82.4869 84.6527 88.4067 77.3464 87.0825C70.0402 85.7584 64.6657 79.9165 56.9077 78.8884C49.1653 77.8602 44.336 81.5211 36.7338 80.6487C29.1316 79.7763 26.4677 76.5516 26.4677 76.5516C26.4677 76.5516 18.7253 79.4803 12.1357 82.2533C5.56168 85.0262 0.000228882 88.9831 0.000228882 88.9831C0.000228882 88.9831 4.67371 93.6566 13.0081 94.6847C21.3425 95.7129 25.7356 91.4756 27.3401 90.5877C28.9447 89.6997 33.9142 85.478 35.2383 87.0825C36.5469 88.6871 29.8326 92.4882 26.9039 94.6847C23.9752 96.8813 18.1957 101.586 26.7637 106.228C31.0789 108.565 36.5625 107.911 39.4912 107.256C47.5452 105.465 47.3738 102.489 50.6141 103.751Z" fill="#02AB47"/>
<path d="M79.5586 42.0613C79.5586 42.0613 83.3597 46.0026 89.3573 46.4544C95.3549 46.9061 98.5641 45.4262 98.5641 45.4262C98.5641 45.4262 105.948 48.4172 112.6 52.2962C117.803 55.334 122.586 59.2441 122.477 59.8984C122.368 60.5527 120.934 62.9673 111.292 62.9673C101.649 62.9673 100.761 60.506 95.9469 60.6306C89.8091 60.7708 86.304 71.5666 75.773 71.7379C67.0025 71.8781 68.311 65.4443 63.4973 64.8679C58.6681 64.2759 56.4715 68.1238 49.6794 68.3107C30.9699 68.8248 16.2017 60.4125 18.3203 55.3651C19.0213 53.6827 23.8506 51.3304 30.892 48.8534C37.5439 46.5167 40.0364 45.1302 40.0364 45.1302C40.0364 45.1302 41.1269 47.4669 44.4918 48.4951C47.6386 49.4454 53.1222 47.3267 53.1222 47.3267C53.1222 47.3267 53.1222 51.86 58.2319 52.7324C65.1019 53.9008 71.2398 50.8319 74.0283 48.3393C76.8168 45.8468 79.5586 42.0613 79.5586 42.0613ZM50.6141 103.751C55.3966 105.636 60.4128 117.647 70.6478 115.014C80.8827 112.382 82.1913 95.4169 82.1913 95.4169C82.1913 95.4169 105.824 115.98 112.896 109.453C118.676 104.11 108.067 95.7752 108.067 95.7752C108.067 95.7752 119.034 99.218 128.537 95.1209C138.039 91.0238 138.226 87.768 138.039 86.7865C137.853 85.8051 131.076 83.4372 125.468 81.5211C120.857 79.9477 115.482 78.4522 115.482 78.4522C115.482 78.4522 109.967 80.6487 111.276 83.4216C112.585 86.1946 117.85 88.0951 115.809 90.1515C113.768 92.1922 108.207 88.3911 106.306 87.0825C104.406 85.774 99.0003 83.001 95.4796 82.8452C87.7372 82.4869 84.6527 88.4067 77.3464 87.0825C70.0402 85.7584 64.6657 79.9165 56.9077 78.8884C49.1653 77.8602 44.336 81.5211 36.7338 80.6487C29.1316 79.7763 26.4677 76.5516 26.4677 76.5516C26.4677 76.5516 18.7253 79.4803 12.1357 82.2533C5.56168 85.0262 0.000228882 88.9831 0.000228882 88.9831C0.000228882 88.9831 4.67371 93.6566 13.0081 94.6847C21.3425 95.7129 25.7356 91.4756 27.3401 90.5877C28.9447 89.6997 33.9142 85.478 35.2383 87.0825C36.5469 88.6871 29.8326 92.4882 26.9039 94.6847C23.9752 96.8813 18.1957 101.586 26.7637 106.228C31.0789 108.565 36.5625 107.911 39.4912 107.256C47.5452 105.465 47.3738 102.489 50.6141 103.751Z" fill="black" fill-opacity="0.2"/>
<path d="M79.5586 42.0613C79.5586 42.0613 83.3597 46.0026 89.3573 46.4544C95.3549 46.9061 98.5641 45.4262 98.5641 45.4262C98.5641 45.4262 105.948 48.4172 112.6 52.2962C117.803 55.334 122.586 59.2441 122.477 59.8984C122.368 60.5527 120.934 62.9673 111.292 62.9673C101.649 62.9673 100.761 60.506 95.9469 60.6306C89.8091 60.7708 86.304 71.5666 75.773 71.7379C67.0025 71.8781 68.311 65.4443 63.4973 64.8679C58.6681 64.2759 56.4715 68.1238 49.6794 68.3107C30.9699 68.8248 16.2017 60.4125 18.3203 55.3651C19.0213 53.6827 23.8506 51.3304 30.892 48.8534C37.5439 46.5167 40.0364 45.1302 40.0364 45.1302C40.0364 45.1302 41.1269 47.4669 44.4918 48.4951C47.6386 49.4454 53.1222 47.3267 53.1222 47.3267C53.1222 47.3267 53.1222 51.86 58.2319 52.7324C65.1019 53.9008 71.2398 50.8319 74.0283 48.3393C76.8168 45.8468 79.5586 42.0613 79.5586 42.0613ZM50.6141 103.751C55.3966 105.636 60.4128 117.647 70.6478 115.014C80.8827 112.382 82.1913 95.4169 82.1913 95.4169C82.1913 95.4169 105.824 115.98 112.896 109.453C118.676 104.11 108.067 95.7752 108.067 95.7752C108.067 95.7752 119.034 99.218 128.537 95.1209C138.039 91.0238 138.226 87.768 138.039 86.7865C137.853 85.8051 131.076 83.4372 125.468 81.5211C120.857 79.9477 115.482 78.4522 115.482 78.4522C115.482 78.4522 109.967 80.6487 111.276 83.4216C112.585 86.1946 117.85 88.0951 115.809 90.1515C113.768 92.1922 108.207 88.3911 106.306 87.0825C104.406 85.774 99.0003 83.001 95.4796 82.8452C87.7372 82.4869 84.6527 88.4067 77.3464 87.0825C70.0402 85.7584 64.6657 79.9165 56.9077 78.8884C49.1653 77.8602 44.336 81.5211 36.7338 80.6487C29.1316 79.7763 26.4677 76.5516 26.4677 76.5516C26.4677 76.5516 18.7253 79.4803 12.1357 82.2533C5.56168 85.0262 0.000228882 88.9831 0.000228882 88.9831C0.000228882 88.9831 4.67371 93.6566 13.0081 94.6847C21.3425 95.7129 25.7356 91.4756 27.3401 90.5877C28.9447 89.6997 33.9142 85.478 35.2383 87.0825C36.5469 88.6871 29.8326 92.4882 26.9039 94.6847C23.9752 96.8813 18.1957 101.586 26.7637 106.228C31.0789 108.565 36.5625 107.911 39.4912 107.256C47.5452 105.465 47.3738 102.489 50.6141 103.751Z" fill="black" fill-opacity="0.2"/>
<path d="M60.0747 32.7144C60.0747 32.7144 56.2736 36.6557 50.276 37.1074C44.2784 37.5592 41.0692 36.0793 41.0692 36.0793C41.0692 36.0793 33.6851 39.0703 27.0332 42.9493C21.83 45.9871 17.0475 49.8972 17.1566 50.5515C17.2656 51.2058 18.6988 53.6204 28.3418 53.6204C37.9847 53.6204 38.8727 51.159 43.6864 51.2837C49.8242 51.4239 53.3293 62.2196 63.8603 62.391C72.6308 62.5312 71.3223 56.0974 76.136 55.521C80.9652 54.929 83.1618 58.7768 89.9539 58.9638C108.663 59.4779 123.432 51.0656 121.313 46.0182C120.612 44.3358 115.783 41.9834 108.741 39.5065C102.089 37.1697 99.5969 35.7833 99.5969 35.7833C99.5969 35.7833 98.5064 38.12 95.1415 39.1482C91.9947 40.0985 86.5111 37.9798 86.5111 37.9798C86.5111 37.9798 86.5111 42.5131 81.4014 43.3855C74.5314 44.5539 68.3935 41.4849 65.605 38.9924C62.8165 36.4999 60.0747 32.7144 60.0747 32.7144ZM89.0192 94.4044C84.2367 96.2894 79.2205 108.3 68.9855 105.667C58.7506 103.035 57.442 86.07 57.442 86.07C57.442 86.07 33.8097 106.633 26.7372 100.106C20.9577 94.7627 31.5665 86.4283 31.5665 86.4283C31.5665 86.4283 20.5994 89.8711 11.0966 85.774C1.59384 81.6769 1.4069 78.4211 1.59384 77.4396C1.78078 76.4582 8.55734 74.0903 14.1655 72.1742C18.7767 70.6008 24.1512 69.1052 24.1512 69.1052C24.1512 69.1052 29.6659 71.3018 28.3573 74.0747C27.0488 76.8476 21.7833 78.7482 23.8241 80.8045C25.8648 82.8453 31.4263 79.0442 33.3268 77.7356C35.2274 76.427 40.633 73.6541 44.1537 73.4983C51.8961 73.14 54.9806 79.0598 62.2869 77.7356C69.5931 76.4115 74.9676 70.5696 82.7256 69.5414C90.468 68.5133 95.2973 72.1742 102.899 71.3018C110.502 70.4294 113.166 67.2047 113.166 67.2047C113.166 67.2047 120.908 70.1334 127.498 72.9063C134.072 75.6793 139.633 79.6362 139.633 79.6362C139.633 79.6362 134.96 84.3097 126.625 85.3378C118.291 86.366 113.898 82.1287 112.293 81.2407C110.689 80.3528 105.719 76.1311 104.395 77.7356C103.086 79.3402 109.801 83.1413 112.729 85.3378C115.658 87.5344 121.438 92.239 112.87 96.8813C108.554 99.2181 103.071 98.5638 100.142 97.9095C92.0881 96.118 92.2595 93.1425 89.0192 94.4044Z" fill="#02AB47"/>
<circle cx="36.5" cy="57.5" r="3.5" fill="#FBCD51"/>
<circle cx="43.5" cy="66.5" r="3.5" fill="#FBCD51"/>
<circle cx="54.5" cy="76.5" r="3.5" fill="#FBCD51"/>
<circle cx="54.5" cy="53.5" r="3.5" fill="#FBCD51"/>
<circle cx="77.5" cy="53.5" r="3.5" fill="#FBCD51"/>
<circle cx="67.5" cy="69.5" r="3.5" fill="#FBCD51"/>
<circle cx="100.5" cy="83.5" r="3.5" fill="#FBCD51"/>
</svg>
