<svg width="128" height="128" viewBox="0 0 128 128" fill="none" xmlns="http://www.w3.org/2000/svg">
<path opacity="0.5" d="M43.3399 11.8301L55.3199 18.3601L73.2399 18.8501L84.3499 12.3501L85.9299 16.5701C85.9299 16.5701 92.9199 35.4301 92.3899 45.9801C91.8999 55.8601 90.6899 64.6001 81.5799 72.4901C74.7199 78.4201 67.8699 78.9501 67.8699 78.9501L67.9999 99.1301C67.9999 99.1301 76.9699 99.5301 82.2399 102.95C86.9999 106.04 87.7799 109.02 87.7799 110.99C87.7799 112.97 85.9299 123.12 63.5199 122.86C41.1099 122.6 39.7799 111.65 39.7799 109.67C39.7799 107.69 41.8999 103.88 48.2199 101.49C54.1499 99.2501 59.2999 99.5101 59.2999 99.5101V78.5601C59.2999 78.5601 50.9899 76.4501 44.6599 70.3801C40.7499 66.6301 34.2399 58.1201 35.1699 44.2701C35.9699 32.1301 43.3399 11.8301 43.3399 11.8301Z" fill="white"/>
<path opacity="0.7" d="M43.3399 11.8301L48.0899 7.48011L55.4699 5.11011L72.4799 5.24011L80.2599 8.54011L84.3499 12.3601L85.9299 16.5801C85.9299 16.5801 92.9199 35.4401 92.3899 45.9901C91.8999 55.8701 90.6899 64.6101 81.5799 72.5001C74.7199 78.4301 67.8699 78.9601 67.8699 78.9601L67.9299 99.1001C67.9299 99.1001 76.9499 100.13 82.2299 103.56C86.9899 106.65 87.7799 109.03 87.7799 111.01C87.7799 112.99 85.9299 123.14 63.5199 122.88C41.1099 122.62 39.7799 111.67 39.7799 109.69C39.7799 107.71 41.8999 103.9 48.2199 101.51C54.1499 99.2701 59.2299 99.1101 59.2299 99.1101L59.2999 78.5701C59.2999 78.5701 50.9899 76.4601 44.6599 70.3901C40.7499 66.6401 34.2399 58.1301 35.1699 44.2801C35.9699 32.1301 43.3399 11.8301 43.3399 11.8301Z" fill="#E0E0E0"/>
<path d="M58.5898 79.03C58.2998 78.94 51.8198 77.37 47.4198 73.93C38.8598 67.23 34.7998 59.84 34.2798 49.98C33.9698 44.16 36.3598 34.27 38.0598 27.34C39.7998 20.28 41.8998 15 41.9198 14.94C41.9198 14.94 42.1998 14.14 42.4998 14.29C43.1298 14.61 42.4998 17.39 42.4998 17.39C42.0198 19.17 41.5598 20.85 39.8598 27.81C38.1898 34.62 35.9998 44.31 36.2898 49.86C36.7798 59.09 40.5898 66.03 48.6598 72.34C52.7598 75.55 57.9698 76.81 58.6798 77.15C59.3898 77.49 60.3098 77.65 60.1798 78.56C60.0398 79.5 58.5898 79.03 58.5898 79.03Z" fill="#D4D4D4"/>
<path d="M68.6198 79.2801C67.8698 79.3501 67.1398 79.2201 67.0798 78.4901C66.9998 77.5901 68.1198 77.5301 68.1198 77.5301C68.8598 77.2601 72.6498 76.9501 76.3998 74.7001C86.9698 68.3601 92.0898 58.4101 91.4298 45.5101C90.5098 27.7201 83.5298 14.1701 83.4598 14.0401L84.7798 12.1001C84.8498 12.2401 92.4798 27.1801 93.4298 45.4101C94.1398 59.1001 89.0298 69.7101 77.7798 76.4501C73.6798 78.9101 69.0098 79.2401 68.6198 79.2801Z" fill="#9E9E9E"/>
<path d="M65.1299 21.9201C64.8799 21.9201 64.6299 21.9201 64.3799 21.9101C55.5799 21.7801 48.0599 19.3001 44.4199 15.7801C43.1199 14.5301 42.9399 13.6601 42.8699 12.2801C42.7399 9.91012 45.5599 3.99012 63.9299 4.09012C76.0399 4.15012 85.0299 7.90012 85.0799 12.6001C85.0999 14.0201 84.8499 15.1801 83.4999 16.5201C80.0499 19.9101 73.2099 21.9201 65.1299 21.9201ZM63.0299 6.58012C50.9899 6.68012 45.8299 10.0001 45.8799 12.1501C45.8899 12.7001 45.9299 13.0101 46.5899 13.6901C48.9899 16.1901 55.4399 18.7701 64.4299 18.9001C73.3899 19.0501 79.0799 16.6501 81.3999 14.3601C82.1499 13.6301 82.5299 13.3901 82.5299 12.8101C82.5299 10.5401 77.6599 6.87012 64.7799 6.59012C64.1899 6.59012 63.5999 6.58012 63.0299 6.58012Z" fill="#C8C8C8"/>
<path d="M65.3199 19.74C64.5099 19.74 63.6599 19.72 62.7799 19.67C48.7799 18.93 46.0599 13.32 45.9299 13.06C45.6899 12.56 45.5799 11.59 45.9599 11.48C46.4699 11.33 46.7399 11.78 47.2599 12.26C48.0999 13.04 51.1299 17.09 63.7799 17.38C76.1799 17.67 80.1699 13.89 80.8999 13.23C81.4499 12.73 82.0299 11.69 82.4899 11.99C82.9499 12.29 82.7099 13.49 82.4399 13.96C82.0199 14.68 78.8899 19.74 65.3199 19.74Z" fill="white"/>
<path d="M63.7898 79.74C61.6398 79.74 62.0798 81.39 61.9698 92.36C61.8898 101.11 62.7998 102.67 63.6998 102.76C64.6098 102.84 65.4298 102.18 65.4298 92.94C65.4398 82.22 65.7698 79.74 63.7898 79.74Z" fill="#9E9E9E"/>
<path d="M67.1101 100.05C66.2901 100.12 67.1801 101.91 66.0701 103.33C65.1901 104.45 63.5401 105.12 63.6101 106.38C63.6801 107.65 70.1601 106.83 70.1601 104.44C70.1601 103.51 69.4801 102.86 68.8201 101.98C68.1601 101.1 67.5201 100.01 67.1101 100.05Z" fill="white"/>
<path d="M52.1401 109.06C52.1401 109.06 54.9901 112.88 63.7701 112.96C72.6301 113.04 74.8201 110.36 75.1501 109.3C75.3901 108.5 72.3901 104.31 72.0201 104.38C71.6501 104.45 70.6801 108.34 63.8301 108.09C56.9801 107.84 56.8001 105.15 56.2501 104.64C55.8101 104.23 52.1401 109.06 52.1401 109.06Z" fill="#9E9E9E"/>
<path d="M43.95 107.2C41.73 107.49 41.63 110.07 43.06 112.41C45.96 117.18 55.5899 120.44 56.0899 117.85C56.5399 115.54 51.48 114.95 51.99 111.07C52.36 108.24 57.4299 105.63 56.0099 104.14C54.5999 102.65 52.4399 106.15 49.5299 106.82C46.9899 107.41 45.66 106.98 43.95 107.2Z" fill="white"/>
<path d="M76.1198 103.4C74.8798 104.39 78.5798 105.41 78.4298 108.46C78.2798 111.51 75.2298 112.83 75.8198 113.67C76.7098 114.94 81.9598 112.25 81.7798 108.08C81.6298 104.67 77.2398 102.51 76.1198 103.4Z" fill="#CACACA"/>
<path d="M74.7799 117.48C75.2299 118.89 81.1499 118.28 83.9399 114.28C86.8399 110.11 84.8299 106.61 83.7199 106.98C82.5999 107.35 84.1699 109.96 81.3399 112.71C78.4999 115.46 74.2799 115.9 74.7799 117.48Z" fill="white"/>
<path d="M39.7902 109.54C39.5302 109.3 39.0602 111.66 39.8502 113.6C40.5202 115.24 43.9502 123.8 64.5002 123.95C87.3602 124.12 88.5302 114.32 88.2402 111.58C88.0502 109.77 87.7002 109.15 87.5202 109.15C87.3502 109.14 87.1702 110.75 87.0202 111.62C86.5402 114.34 83.8602 121.2 64.8702 121.35C47.5902 121.49 42.5302 114.42 41.6402 113.16C41.0102 112.26 39.9402 109.68 39.7902 109.54Z" fill="#9E9E9E"/>
<path d="M38.2598 47.8901L41.3298 56.2501L52.5898 62.3101L66.9998 65.0301L81.3298 52.5801L86.3598 45.1601C86.3598 45.1601 81.4198 43.0601 75.8398 42.2401C67.1398 40.9601 59.7498 40.6401 51.0498 42.2601C40.3598 44.2501 38.2598 47.8901 38.2598 47.8901Z" fill="#CC1935"/>
<path d="M57.96 60.51C68.02 60.85 69.39 54.97 77.58 49.17C85.77 43.37 89.09 45.08 89.09 45.08C89.09 45.08 91.84 57.55 82.35 67.42C74.08 76.03 58.93 78.62 46.97 68.49C38.1 60.98 38.26 47.89 38.26 47.89C38.26 47.89 45.25 60.08 57.96 60.51Z" fill="url(#paint0_radial_82_1046)"/>
<path d="M45.0902 20.0801C45.0902 20.0801 43.6802 24.0501 41.9002 32.0101C40.3702 38.8501 39.7402 43.2001 39.7402 43.2001C39.7402 43.2001 42.9602 41.6001 46.5502 40.6601C49.8002 39.8101 52.6102 39.9801 52.6102 39.9801C52.6102 39.9801 52.5202 34.7701 52.9502 31.0101C53.3002 27.9101 54.0602 23.9201 54.0602 23.9201C54.0602 23.9201 51.2402 23.2401 49.5302 22.4701C47.8202 21.7001 45.0902 20.0801 45.0902 20.0801Z" fill="white"/>
<defs>
<radialGradient id="paint0_radial_82_1046" cx="0" cy="0" r="1" gradientUnits="userSpaceOnUse" gradientTransform="translate(63.9514 49.5767) rotate(90.1553) scale(25.2811 26.3404)">
<stop offset="0.404" stop-color="#AF0D1A"/>
<stop offset="0.535" stop-color="#AB0C19"/>
<stop offset="0.667" stop-color="#9F0B17"/>
<stop offset="0.801" stop-color="#8A0813"/>
<stop offset="0.935" stop-color="#6E050D"/>
<stop offset="0.96" stop-color="#68040C"/>
</radialGradient>
</defs>
</svg>
